<?xml version="1.0" encoding="utf-8"?>
<!-- Generator: Adobe Illustrator 28.0.0, SVG Export Plug-In . SVG Version: 6.00 Build 0)  -->
<svg version="1.1" id="Abstract_Digital_technology"
	 xmlns="http://www.w3.org/2000/svg" xmlns:xlink="http://www.w3.org/1999/xlink" x="0px" y="0px" viewBox="0 0 3766.3 2614.7"
	 style="enable-background:new 0 0 3766.3 2614.7;" xml:space="preserve">
<style type="text/css">
	.st0{fill:#FFFFFF;}
	.st1{opacity:0.3;}
</style>
<path class="st0" d="M985.6,508.7c-11.6,0-21-9.4-21-21s9.4-21,21-21s21,9.4,21,21S997.2,508.7,985.6,508.7z M985.6,470.7
	c-9.4,0-17,7.6-17,17s7.6,17,17,17s17-7.6,17-17C1002.6,478.4,995,470.7,985.6,470.7z"/>
<path class="st0" d="M1145.1,508.7c-11.6,0-21-9.4-21-21s9.4-21,21-21s21,9.4,21,21C1166,499.3,1156.6,508.7,1145.1,508.7z
	 M1145.1,470.7c-9.4,0-17,7.6-17,17s7.6,17,17,17s17-7.6,17-17C1162.1,478.4,1154.5,470.7,1145.1,470.7z"/>
<rect x="1006.5" y="486.8" class="st0" width="120.2" height="2"/>
<path class="st0" d="M2700.5,89.2c0-11.6,9.4-21,21-21s21,9.4,21,21s-9.4,21-21,21S2700.5,100.8,2700.5,89.2z M2738.5,89.2
	c0-9.4-7.6-17-17-17s-17,7.6-17,17s7.6,17,17,17C2730.8,106.2,2738.5,98.6,2738.5,89.2z"/>
<path class="st0" d="M2700.2,652.7c0-11.6,9.4-21,21-21s21,9.4,21,21c0,11.6-9.4,21-21,21S2700.2,664.3,2700.2,652.7z M2738.2,652.7
	c0-9.4-7.6-17-17-17s-17,7.6-17,17c0,9.4,7.6,17,17,17S2738.2,662.1,2738.2,652.7z"/>
<rect x="2858.7" y="88.4" class="st0" width="2" height="566.1"/>
<rect x="2740.4" y="652.7" class="st0" width="120.2" height="2"/>
<rect x="2740.4" y="88.3" class="st0" width="120.2" height="2"/>
<path class="st0" d="M991,798.7c-11.6,0-21-9.4-21-21c0-11.6,9.4-21,21-21s21,9.4,21,21C1011.9,789.3,1002.5,798.7,991,798.7z
	 M991,760.7c-9.4,0-17,7.6-17,17c0,9.4,7.6,17,17,17s17-7.6,17-17C1008,768.3,1000.4,760.7,991,760.7z"/>
<path class="st0" d="M1080.4,798.7c-11.6,0-21-9.4-21-21c0-11.6,9.4-21,21-21c11.6,0,21,9.4,21,21
	C1101.4,789.3,1092,798.7,1080.4,798.7z M1080.4,760.7c-9.4,0-17,7.6-17,17c0,9.4,7.6,17,17,17c9.4,0,17-7.6,17-17
	C1097.4,768.3,1089.8,760.7,1080.4,760.7z"/>
<rect x="1011.9" y="776.7" class="st0" width="49.8" height="2"/>
<path class="st0" d="M1393.2,771.5c-11.6,0-21-9.4-21-21c0-11.6,9.4-21,21-21c11.6,0,21,9.4,21,21
	C1414.2,762.1,1404.8,771.5,1393.2,771.5z M1393.2,733.5c-9.4,0-17,7.6-17,17c0,9.4,7.6,17,17,17c9.4,0,17-7.6,17-17
	C1410.3,741.1,1402.6,733.5,1393.2,733.5z"/>
<path class="st0" d="M1482.7,771.5c-11.6,0-21-9.4-21-21c0-11.6,9.4-21,21-21c11.6,0,21,9.4,21,21
	C1503.6,762.1,1494.2,771.5,1482.7,771.5z M1482.7,733.5c-9.4,0-17,7.6-17,17c0,9.4,7.6,17,17,17c9.4,0,17-7.6,17-17
	C1499.7,741.1,1492.1,733.5,1482.7,733.5z"/>
<rect x="1414.1" y="749.5" class="st0" width="49.8" height="2"/>
<path class="st0" d="M811,640.6c-7.9,7.9-8.1,20.7-0.7,28.9L635.6,844.3c-8.2-7.5-21-7.3-28.9,0.7c-8.2,8.2-8.2,21.5,0,29.7
	c8.2,8.2,21.5,8.2,29.6,0c7.9-7.9,8.1-20.7,0.7-28.9l174.7-174.7c8.2,7.5,21,7.3,28.9-0.7c8.2-8.2,8.2-21.5,0-29.6
	C832.5,632.5,819.2,632.5,811,640.6L811,640.6z M633.6,871.8c-6.6,6.6-17.4,6.6-24.1,0c-6.6-6.6-6.6-17.4,0-24.1
	c6.6-6.6,17.4-6.6,24.1,0C640.2,854.4,640.2,865.2,633.6,871.8z M837.9,667.5c-6.6,6.6-17.4,6.6-24.1,0c-6.6-6.6-6.6-17.4,0-24.1
	c6.6-6.6,17.4-6.6,24.1,0C844.5,650.1,844.5,660.9,837.9,667.5z"/>
<path class="st0" d="M522.9,632.9c-7.9,7.9-8.1,20.7-0.7,28.9L347.5,836.6c-8.2-7.5-21-7.3-28.9,0.7c-8.2,8.2-8.2,21.5,0,29.6
	c8.2,8.2,21.5,8.2,29.6,0c7.9-7.9,8.1-20.7,0.7-28.9l174.7-174.7c8.2,7.5,21,7.3,28.9-0.7c8.2-8.2,8.2-21.5,0-29.6
	C544.4,624.8,531.1,624.8,522.9,632.9L522.9,632.9z M345.5,864.1c-6.6,6.6-17.4,6.6-24.1,0c-6.6-6.6-6.6-17.4,0-24.1
	c6.6-6.6,17.4-6.6,24.1,0C352.1,846.7,352.1,857.5,345.5,864.1z M549.8,659.8c-6.6,6.6-17.4,6.6-24.1,0c-6.6-6.6-6.6-17.4,0-24.1
	c6.6-6.6,17.4-6.6,24.1,0C556.4,642.4,556.4,653.2,549.8,659.8z"/>
<path class="st0" d="M2939.3,396.6c0,11.2,8.9,20.4,20,20.9v247.1c-11.1,0.5-20,9.7-20,20.9c0,11.6,9.4,21,21,21s21-9.4,21-21
	c0-11.2-8.9-20.4-20-20.9v-247c11.1-0.5,20-9.7,20-20.9c0-11.6-9.4-21-21-21S2939.3,385.1,2939.3,396.6z M2977.3,685.6
	c0,9.4-7.6,17-17,17s-17-7.6-17-17c0-9.4,7.6-17,17-17C2969.6,668.5,2977.3,676.2,2977.3,685.6z M2977.3,396.6c0,9.4-7.6,17-17,17
	s-17-7.6-17-17s7.6-17,17-17C2969.6,379.6,2977.3,387.3,2977.3,396.6z"/>
<path class="st0" d="M3028.9,396.6c0,11.2,8.9,20.4,20,20.9v247.1c-11.1,0.5-20,9.7-20,20.9c0,11.6,9.4,21,21,21s21-9.4,21-21
	c0-11.2-8.9-20.4-20-20.9v-247c11.1-0.5,20-9.7,20-20.9c0-11.6-9.4-21-21-21C3038.4,375.7,3028.9,385.1,3028.9,396.6z M3066.9,685.6
	c0,9.4-7.6,17-17,17s-17-7.6-17-17c0-9.4,7.6-17,17-17C3059.3,668.5,3066.9,676.2,3066.9,685.6z M3066.9,396.6c0,9.4-7.6,17-17,17
	s-17-7.6-17-17s7.6-17,17-17S3066.9,387.3,3066.9,396.6z"/>
<path class="st0" d="M3118.6,396.6c0,11.2,8.9,20.4,20,20.9v247.1c-11.1,0.5-20,9.7-20,20.9c0,11.6,9.4,21,21,21s21-9.4,21-21
	c0-11.2-8.9-20.4-20-20.9v-247c11.1-0.5,20-9.7,20-20.9c0-11.6-9.4-21-21-21S3118.6,385.1,3118.6,396.6z M3156.6,685.6
	c0,9.4-7.6,17-17,17s-17-7.6-17-17c0-9.4,7.6-17,17-17C3149,668.5,3156.6,676.2,3156.6,685.6z M3156.6,396.6c0,9.4-7.6,17-17,17
	s-17-7.6-17-17s7.6-17,17-17S3156.6,387.3,3156.6,396.6z"/>
<path class="st0" d="M3208.3,396.6c0,11.2,8.9,20.4,20,20.9v247.1c-11.1,0.5-20,9.7-20,20.9c0,11.6,9.4,21,21,21s21-9.4,21-21
	c0-11.2-8.9-20.4-20-20.9v-247c11.1-0.5,20-9.7,20-20.9c0-11.6-9.4-21-21-21S3208.3,385.1,3208.3,396.6z M3246.3,685.6
	c0,9.4-7.6,17-17,17s-17-7.6-17-17c0-9.4,7.6-17,17-17C3238.7,668.5,3246.3,676.2,3246.3,685.6z M3246.3,396.6c0,9.4-7.6,17-17,17
	s-17-7.6-17-17s7.6-17,17-17S3246.3,387.3,3246.3,396.6z"/>
<path class="st0" d="M1039,640.6c-7.9,7.9-8.1,20.7-0.7,28.9L863.6,844.3c-8.2-7.5-21-7.3-28.9,0.7c-8.2,8.2-8.2,21.5,0,29.7
	s21.5,8.2,29.6,0c7.9-7.9,8.1-20.7,0.7-28.9l174.7-174.7c8.2,7.5,21,7.3,28.9-0.7c8.2-8.2,8.2-21.5,0-29.6
	C1060.5,632.5,1047.2,632.5,1039,640.6L1039,640.6z M861.5,871.8c-6.6,6.6-17.4,6.6-24.1,0c-6.6-6.6-6.6-17.4,0-24.1
	c6.6-6.6,17.4-6.6,24.1,0C868.2,854.4,868.2,865.2,861.5,871.8z M1065.8,667.5c-6.6,6.6-17.4,6.6-24.1,0c-6.6-6.6-6.6-17.4,0-24.1
	c6.6-6.6,17.4-6.6,24.1,0C1072.5,650.1,1072.5,660.9,1065.8,667.5z"/>
<path class="st0" d="M1072.6,735c-11.6,0-21-9.4-21-21c0-11.6,9.4-21,21-21s21,9.4,21,21C1093.6,725.6,1084.2,735,1072.6,735z
	 M1072.6,697c-9.4,0-17,7.6-17,17c0,9.4,7.6,17,17,17s17-7.6,17-17C1089.6,704.6,1082,697,1072.6,697z"/>
<path class="st0" d="M1144.2,684.2c-11.6,0-21-9.4-21-21c0-11.6,9.4-21,21-21c11.6,0,21,9.4,21,21
	C1165.1,674.8,1155.7,684.2,1144.2,684.2z M1144.2,646.2c-9.4,0-17,7.6-17,17c0,9.4,7.6,17,17,17c9.4,0,17-7.6,17-17
	C1161.2,653.8,1153.6,646.2,1144.2,646.2z"/>
<rect x="1093.5" y="713" class="st0" width="49.8" height="2"/>
<rect x="1143.3" y="682.9" class="st0" width="2" height="32.1"/>
<path class="st0" d="M633.4,540.6c-11.6,0-21-9.4-21-21c0-11.6,9.4-21,21-21c11.6,0,21,9.4,21,21
	C654.3,531.2,644.9,540.6,633.4,540.6z M633.4,502.6c-9.4,0-17,7.6-17,17c0,9.4,7.6,17,17,17c9.4,0,17-7.6,17-17
	C650.4,510.2,642.7,502.6,633.4,502.6z"/>
<path class="st0" d="M704.9,489.8c-11.6,0-21-9.4-21-21s9.4-21,21-21c11.6,0,21,9.4,21,21C725.9,480.4,716.5,489.8,704.9,489.8z
	 M704.9,451.8c-9.4,0-17,7.6-17,17c0,9.4,7.6,17,17,17c9.4,0,17-7.6,17-17C722,459.5,714.3,451.8,704.9,451.8z"/>
<rect x="654.2" y="518.6" class="st0" width="49.8" height="2"/>
<rect x="704" y="488.5" class="st0" width="2" height="32.1"/>
<path class="st0" d="M631,604.6c-11.6,0-21-9.4-21-21s9.4-21,21-21s21,9.4,21,21S642.6,604.6,631,604.6z M631,566.6
	c-9.4,0-17,7.6-17,17s7.6,17,17,17s17-7.6,17-17C648,574.3,640.4,566.6,631,566.6z"/>
<path class="st0" d="M875.3,582.1c-11.6,0-21-9.4-21-21s9.4-21,21-21s21,9.4,21,21S886.9,582.1,875.3,582.1z M875.3,544.1
	c-9.4,0-17,7.6-17,17s7.6,17,17,17s17-7.6,17-17S884.7,544.1,875.3,544.1z"/>
<rect x="651.9" y="582.7" class="st0" width="49.8" height="2"/>
<rect x="723" y="560.5" class="st0" width="133.1" height="2"/>
<rect x="696.3" y="571.6" transform="matrix(0.7071 -0.7071 0.7071 0.7071 -196.2481 671.4182)" class="st0" width="32.1" height="2"/>
<path class="st0" d="M1264.3,850c-11.6,0-21-9.4-21-21c0-11.6,9.4-21,21-21c11.6,0,21,9.4,21,21C1285.2,840.6,1275.8,850,1264.3,850
	z M1264.3,812c-9.4,0-17,7.6-17,17c0,9.4,7.6,17,17,17c9.4,0,17-7.6,17-17C1281.3,819.6,1273.7,812,1264.3,812z"/>
<path class="st0" d="M1508.6,827.5c-11.6,0-21-9.4-21-21c0-11.6,9.4-21,21-21c11.6,0,21,9.4,21,21
	C1529.5,818.1,1520.1,827.5,1508.6,827.5z M1508.6,789.5c-9.4,0-17,7.6-17,17c0,9.4,7.6,17,17,17c9.4,0,17-7.6,17-17
	C1525.6,797.1,1517.9,789.5,1508.6,789.5z"/>
<rect x="1285.1" y="828" class="st0" width="49.8" height="2"/>
<rect x="1356.2" y="805.9" class="st0" width="133.1" height="2"/>
<rect x="1329.5" y="817" transform="matrix(0.7071 -0.7071 0.7071 0.7071 -184.3226 1191.0073)" class="st0" width="32.1" height="2"/>
<path class="st0" d="M941.3,1002c-11.6,0-21-9.4-21-21c0-11.6,9.4-21,21-21s21,9.4,21,21C962.3,992.6,952.9,1002,941.3,1002z
	 M941.3,964c-9.4,0-17,7.6-17,17c0,9.4,7.6,17,17,17s17-7.6,17-17C958.3,971.7,950.7,964,941.3,964z"/>
<path class="st0" d="M1185.6,979.5c-11.6,0-21-9.4-21-21c0-11.6,9.4-21,21-21s21,9.4,21,21C1206.5,970.1,1197.1,979.5,1185.6,979.5z
	 M1185.6,941.5c-9.4,0-17,7.6-17,17c0,9.4,7.6,17,17,17s17-7.6,17-17C1202.6,949.1,1195,941.5,1185.6,941.5z"/>
<rect x="962.2" y="980.1" class="st0" width="49.8" height="2"/>
<rect x="1033.3" y="958" class="st0" width="133.1" height="2"/>
<rect x="1006.6" y="969" transform="matrix(0.7071 -0.7071 0.7071 0.7071 -386.3665 1007.2332)" class="st0" width="32.1" height="2"/>
<path class="st0" d="M2196,752.9c0,11.6-9.4,21-21,21c-11.6,0-21-9.4-21-21c0-11.6,9.4-21,21-21C2186.6,732,2196,741.4,2196,752.9
	L2196,752.9z M2158,752.9c0,9.4,7.6,17,17,17c9.4,0,17-7.6,17-17c0-9.4-7.6-17-17-17C2165.7,735.9,2158,743.6,2158,752.9z"/>
<path class="st0" d="M2047,109.1c0,11.6-9.4,21-21,21c-11.6,0-21-9.4-21-21s9.4-21,21-21C2037.6,88.1,2047,97.5,2047,109.1z
	 M2009,109.1c0,9.4,7.6,17,17,17c9.4,0,17-7.6,17-17s-7.6-17-17-17C2016.6,92,2009,99.7,2009,109.1z"/>
<rect x="2174.1" y="257.6" class="st0" width="2" height="476.8"/>
<rect x="2106.8" y="95.3" transform="matrix(0.7071 -0.7071 0.7071 0.7071 482.4913 1546.2672)" class="st0" width="2" height="190.8"/>
<path class="st0" d="M2268.8,752.9c0,11.6-9.4,21-21,21c-11.6,0-21-9.4-21-21c0-11.6,9.4-21,21-21
	C2259.4,732,2268.8,741.4,2268.8,752.9L2268.8,752.9z M2230.8,752.9c0,9.4,7.6,17,17,17c9.4,0,17-7.6,17-17c0-9.4-7.6-17-17-17
	C2238.4,735.9,2230.8,743.6,2230.8,752.9z"/>
<path class="st0" d="M2119.8,109.1c0,11.6-9.4,21-21,21c-11.6,0-21-9.4-21-21s9.4-21,21-21C2110.3,88.1,2119.8,97.5,2119.8,109.1z
	 M2081.8,109.1c0,9.4,7.6,17,17,17c9.4,0,17-7.6,17-17s-7.6-17-17-17C2089.4,92,2081.8,99.7,2081.8,109.1z"/>
<rect x="2246.9" y="257.6" class="st0" width="2" height="476.8"/>
<rect x="2179.6" y="95.4" transform="matrix(0.7071 -0.7071 0.7071 0.7071 503.7676 1597.8125)" class="st0" width="2" height="190.8"/>
<path class="st0" d="M2341.6,752.9c0,11.6-9.4,21-21,21s-21-9.4-21-21c0-11.6,9.4-21,21-21C2332.2,732,2341.6,741.4,2341.6,752.9
	L2341.6,752.9z M2303.6,752.9c0,9.4,7.6,17,17,17c9.4,0,17-7.6,17-17c0-9.4-7.6-17-17-17S2303.6,743.6,2303.6,752.9z"/>
<path class="st0" d="M2192.5,109.1c0,11.6-9.4,21-21,21c-11.6,0-21-9.4-21-21s9.4-21,21-21C2183.1,88.1,2192.5,97.5,2192.5,109.1z
	 M2154.5,109.1c0,9.4,7.6,17,17,17c9.4,0,17-7.6,17-17s-7.6-17-17-17C2162.2,92,2154.5,99.7,2154.5,109.1z"/>
<rect x="2319.6" y="257.6" class="st0" width="2" height="476.8"/>
<rect x="2252.3" y="95.3" transform="matrix(0.7071 -0.7071 0.7071 0.7071 525.1021 1649.1995)" class="st0" width="2" height="190.8"/>
<path class="st0" d="M3227.8,792.2c-11.6,0-21-9.4-21-21c0-11.6,9.4-21,21-21s21,9.4,21,21C3248.8,782.8,3239.4,792.2,3227.8,792.2z
	 M3227.8,754.2c-9.4,0-17,7.6-17,17c0,9.4,7.6,17,17,17s17-7.6,17-17C3244.8,761.8,3237.2,754.2,3227.8,754.2z"/>
<path class="st0" d="M3446.9,643.1c-11.6,0-21-9.4-21-21s9.4-21,21-21s21,9.4,21,21S3458.5,643.1,3446.9,643.1z M3446.9,605.1
	c-9.4,0-17,7.6-17,17s7.6,17,17,17s17-7.6,17-17C3464,612.8,3456.3,605.1,3446.9,605.1z"/>
<rect x="3248.7" y="770.2" class="st0" width="49.8" height="2"/>
<rect x="3269.8" y="703.2" transform="matrix(0.7071 -0.7071 0.7071 0.7071 487.7101 2585.804)" class="st0" width="190.8" height="2"/>
<path class="st0" d="M2078.7,1143.1c-11.6,0-21-9.4-21-21s9.4-21,21-21c11.6,0,21,9.4,21,21S2090.3,1143.1,2078.7,1143.1z
	 M2078.7,1105.1c-9.4,0-17,7.6-17,17s7.6,17,17,17c9.4,0,17-7.6,17-17S2088.1,1105.1,2078.7,1105.1z"/>
<path class="st0" d="M2297.9,994c-11.6,0-21-9.4-21-21c0-11.6,9.4-21,21-21c11.6,0,21,9.4,21,21C2318.8,984.6,2309.4,994,2297.9,994
	z M2297.9,956c-9.4,0-17,7.6-17,17c0,9.4,7.6,17,17,17c9.4,0,17-7.6,17-17C2314.9,963.7,2307.3,956,2297.9,956z"/>
<rect x="2099.6" y="1121.1" class="st0" width="49.8" height="2"/>
<rect x="2120.7" y="1054" transform="matrix(0.7071 -0.7071 0.7071 0.7071 -96.9196 1875.9957)" class="st0" width="190.8" height="2"/>
<path class="st0" d="M1977,1078.7c-11.6,0-21-9.4-21-21s9.4-21,21-21c11.6,0,21,9.4,21,21C1997.9,1069.3,1988.5,1078.7,1977,1078.7z
	 M1977,1040.7c-9.4,0-17,7.6-17,17s7.6,17,17,17c9.4,0,17-7.6,17-17C1994,1048.4,1986.3,1040.7,1977,1040.7z"/>
<path class="st0" d="M2904.8,795.3c-11.6,0-21-9.4-21-21c0-11.6,9.4-21,21-21s21,9.4,21,21C2925.8,785.9,2916.4,795.3,2904.8,795.3z
	 M2904.8,757.3c-9.4,0-17,7.6-17,17s7.6,17,17,17s17-7.6,17-17C2921.8,764.9,2914.2,757.3,2904.8,757.3z"/>
<rect x="2275.5" y="922.4" class="st0" width="480.8" height="2"/>
<rect x="1997.5" y="1056.7" class="st0" width="144.5" height="2"/>
<rect x="2727.7" y="855.2" transform="matrix(0.7071 -0.7071 0.7071 0.7071 221.4234 2246.9775)" class="st0" width="190.8" height="2"/>
<rect x="2113.4" y="989.5" transform="matrix(0.7071 -0.7071 0.7071 0.7071 -53.4305 1851.9618)" class="st0" width="190.8" height="2"/>
<path class="st0" d="M609.3,953.3c-11.6,0-21-9.4-21-21c0-11.6,9.4-21,21-21s21,9.4,21,21C630.3,943.9,620.9,953.3,609.3,953.3z
	 M609.3,915.3c-9.4,0-17,7.6-17,17c0,9.4,7.6,17,17,17s17-7.6,17-17C626.4,923,618.7,915.3,609.3,915.3z"/>
<path class="st0" d="M1138,804.3c-11.6,0-21-9.4-21-21c0-11.6,9.4-21,21-21s21,9.4,21,21C1159,794.9,1149.6,804.3,1138,804.3z
	 M1138,766.3c-9.4,0-17,7.6-17,17s7.6,17,17,17s17-7.6,17-17C1155.1,773.9,1147.4,766.3,1138,766.3z"/>
<rect x="629" y="931.4" class="st0" width="360.6" height="2"/>
<rect x="960.9" y="864.2" transform="matrix(0.7071 -0.7071 0.7071 0.7071 -302.4046 1000.3045)" class="st0" width="190.8" height="2"/>
<path class="st0" d="M378.9,949.1c-11.6,0-21-9.4-21-21c0-11.6,9.4-21,21-21s21,9.4,21,21C399.9,939.7,390.5,949.1,378.9,949.1z
	 M378.9,911.1c-9.4,0-17,7.6-17,17c0,9.4,7.6,17,17,17s17-7.6,17-17C396,918.8,388.3,911.1,378.9,911.1z"/>
<path class="st0" d="M525.9,898.4c-11.6,0-21-9.4-21-21c0-11.6,9.4-21,21-21c11.6,0,21,9.4,21,21C546.9,889,537.5,898.4,525.9,898.4
	z M525.9,860.4c-9.4,0-17,7.6-17,17c0,9.4,7.6,17,17,17c9.4,0,17-7.6,17-17C543,868,535.3,860.4,525.9,860.4z"/>
<rect x="399.8" y="927.2" class="st0" width="126.4" height="2"/>
<rect x="525" y="897.1" class="st0" width="2" height="32.1"/>
<path class="st0" d="M525.9,959.7c11.6,0,21,9.4,21,21c0,11.6-9.4,21-21,21c-11.6,0-21-9.4-21-21C505,969.1,514.4,959.7,525.9,959.7
	z M525.9,997.7c9.4,0,17-7.6,17-17c0-9.4-7.6-17-17-17c-9.4,0-17,7.6-17,17C508.9,990.1,516.6,997.7,525.9,997.7z"/>
<rect x="525" y="928.9" class="st0" width="2" height="32.1"/>
<path class="st0" d="M2378.6,1172.6c8.2,8.2,8.2,21.5,0,29.6c-8.2,8.2-21.5,8.2-29.6,0c-8.2-8.2-8.2-21.5,0-29.7
	C2357.1,1164.4,2370.4,1164.4,2378.6,1172.6L2378.6,1172.6z M2351.7,1199.4c6.6,6.6,17.4,6.6,24.1,0c6.6-6.6,6.6-17.4,0-24.1
	c-6.6-6.6-17.4-6.6-24.1,0C2345,1182,2345,1192.8,2351.7,1199.4z"/>
<path class="st0" d="M2238.7,1104.5c8.2,8.2,8.2,21.5,0,29.6c-8.2,8.2-21.5,8.2-29.6,0c-8.2-8.2-8.2-21.5,0-29.6
	C2217.2,1096.4,2230.5,1096.4,2238.7,1104.5z M2211.8,1131.4c6.6,6.6,17.4,6.6,24.1,0c6.6-6.6,6.6-17.4,0-24.1
	c-6.6-6.6-17.4-6.6-24.1,0C2205.2,1114,2205.2,1124.8,2211.8,1131.4z"/>
<rect x="2303.2" y="1064.8" transform="matrix(0.7071 -0.7071 0.7071 0.7071 -122.7329 1959.71)" class="st0" width="2" height="126.4"/>
<rect x="2233" y="1093.2" transform="matrix(0.7071 -0.7071 0.7071 0.7071 -114.969 1910.7998)" class="st0" width="32.1" height="2"/>
<path class="st0" d="M2282.1,1061.2c-8.2-8.2-8.2-21.5,0-29.6c8.2-8.2,21.5-8.2,29.6,0c8.2,8.2,8.2,21.5,0,29.7
	C2303.6,1069.3,2290.3,1069.3,2282.1,1061.2L2282.1,1061.2z M2309,1034.3c-6.6-6.6-17.4-6.6-24.1,0c-6.6,6.6-6.6,17.4,0,24.1
	c6.6,6.6,17.4,6.6,24.1,0C2315.6,1051.7,2315.6,1040.9,2309,1034.3z"/>
<rect x="2255.5" y="1070.4" transform="matrix(0.7071 -0.7071 0.7071 0.7071 -92.2644 1920.0067)" class="st0" width="32.1" height="2"/>
<path class="st0" d="M2666.4,578.7c-11.6,0-21-9.4-21-21c0-11.6,9.4-21,21-21s21,9.4,21,21C2687.4,569.3,2678,578.7,2666.4,578.7z
	 M2666.4,540.7c-9.4,0-17,7.6-17,17c0,9.4,7.6,17,17,17s17-7.6,17-17C2683.4,548.3,2675.8,540.7,2666.4,540.7z"/>
<path class="st0" d="M2813.4,527.9c-11.6,0-21-9.4-21-21c0-11.6,9.4-21,21-21s21,9.4,21,21C2834.4,518.5,2825,527.9,2813.4,527.9z
	 M2813.4,489.9c-9.4,0-17,7.6-17,17c0,9.4,7.6,17,17,17s17-7.6,17-17C2830.4,497.6,2822.8,489.9,2813.4,489.9z"/>
<rect x="2687.3" y="556.8" class="st0" width="126.4" height="2"/>
<rect x="2812.5" y="526.6" class="st0" width="2" height="32.1"/>
<path class="st0" d="M2813.4,589.3c11.6,0,21,9.4,21,21c0,11.6-9.4,21-21,21s-21-9.4-21-21C2792.4,598.7,2801.9,589.3,2813.4,589.3z
	 M2813.4,627.3c9.4,0,17-7.6,17-17c0-9.4-7.6-17-17-17s-17,7.6-17,17C2796.4,619.6,2804,627.3,2813.4,627.3z"/>
<rect x="2812.5" y="558.5" class="st0" width="2" height="32.1"/>
<path class="st0" d="M3102.2,196.9c11.6,0,21,9.4,21,21s-9.4,21-21,21s-21-9.4-21-21C3081.3,206.3,3090.7,196.9,3102.2,196.9z
	 M3102.2,234.9c9.4,0,17-7.6,17-17s-7.6-17-17-17s-17,7.6-17,17C3085.2,227.2,3092.8,234.9,3102.2,234.9z"/>
<path class="st0" d="M2955.2,247.6c11.6,0,21,9.4,21,21s-9.4,21-21,21s-21-9.4-21-21C2934.3,257.1,2943.7,247.6,2955.2,247.6z
	 M2955.2,285.6c9.4,0,17-7.6,17-17s-7.6-17-17-17s-17,7.6-17,17S2945.8,285.6,2955.2,285.6z"/>
<rect x="2954.9" y="216.9" class="st0" width="126.4" height="2"/>
<rect x="2954.2" y="216.9" class="st0" width="2" height="32.1"/>
<path class="st0" d="M2955.2,186.3c-11.6,0-21-9.4-21-21s9.4-21,21-21s21,9.4,21,21S2966.8,186.3,2955.2,186.3z M2955.2,148.3
	c-9.4,0-17,7.6-17,17s7.6,17,17,17s17-7.6,17-17C2972.3,156,2964.6,148.3,2955.2,148.3z"/>
<rect x="2954.2" y="185" class="st0" width="2" height="32.1"/>
<path class="st0" d="M1105.1,922c-11.6,0-21-9.4-21-21c0-11.6,9.4-21,21-21s21,9.4,21,21C1126.1,912.6,1116.7,922,1105.1,922z
	 M1105.1,884c-9.4,0-17,7.6-17,17c0,9.4,7.6,17,17,17s17-7.6,17-17C1122.2,891.7,1114.5,884,1105.1,884z"/>
<path class="st0" d="M1952.9,178c0-11.6,9.4-21,21-21c11.6,0,21,9.4,21,21s-9.4,21-21,21C1962.3,199,1952.9,189.6,1952.9,178z
	 M1990.9,178c0-9.4-7.6-17-17-17c-9.4,0-17,7.6-17,17s7.6,17,17,17C1983.2,195,1990.9,187.4,1990.9,178z"/>
<path class="st0" d="M2003.6,792.5c0-11.6,9.4-21,21-21c11.6,0,21,9.4,21,21c0,11.6-9.4,21-21,21
	C2013,813.4,2003.6,804,2003.6,792.5z M2041.6,792.5c0-9.4-7.6-17-17-17c-9.4,0-17,7.6-17,17c0,9.4,7.6,17,17,17
	C2034,809.5,2041.6,801.9,2041.6,792.5z"/>
<rect x="1972.8" y="198.3" class="st0" width="2" height="593.3"/>
<rect x="1972.8" y="791.6" class="st0" width="32.1" height="2"/>
<path class="st0" d="M1220.8,847.5c0,11.6-9.4,21-21,21c-11.6,0-21-9.4-21-21c0-11.6,9.4-21,21-21
	C1211.4,826.5,1220.8,835.9,1220.8,847.5z M1182.8,847.5c0,9.4,7.6,17,17,17c9.4,0,17-7.6,17-17c0-9.4-7.6-17-17-17
	C1190.4,830.5,1182.8,838.1,1182.8,847.5z"/>
<path class="st0" d="M1170,558.3c0,11.6-9.4,21-21,21s-21-9.4-21-21c0-11.6,9.4-21,21-21C1160.6,537.4,1170,546.8,1170,558.3z
	 M1132,558.3c0,9.4,7.6,17,17,17s17-7.6,17-17c0-9.4-7.6-17-17-17C1139.7,541.3,1132,548.9,1132,558.3z"/>
<rect x="1198.9" y="559.3" class="st0" width="2" height="267.4"/>
<rect x="1168.7" y="557.3" class="st0" width="32.1" height="2"/>
<path class="st0" d="M2093.4,1008.4c0,11.6-9.4,21-21,21c-11.6,0-21-9.4-21-21c0-11.6,9.4-21,21-21
	C2084,987.4,2093.4,996.8,2093.4,1008.4z M2055.4,1008.4c0,9.4,7.6,17,17,17c9.4,0,17-7.6,17-17c0-9.4-7.6-17-17-17
	C2063,991.4,2055.4,999,2055.4,1008.4z"/>
<path class="st0" d="M2042.6,719.2c0,11.6-9.4,21-21,21c-11.6,0-21-9.4-21-21c0-11.6,9.4-21,21-21
	C2033.2,698.3,2042.6,707.7,2042.6,719.2z M2004.6,719.2c0,9.4,7.6,17,17,17c9.4,0,17-7.6,17-17c0-9.4-7.6-17-17-17
	C2012.2,702.2,2004.6,709.8,2004.6,719.2z"/>
<rect x="2071.4" y="720.2" class="st0" width="2" height="267.4"/>
<rect x="2041.3" y="718.2" class="st0" width="32.1" height="2"/>
<path class="st0" d="M2518.1,208.1c-11.6,0-21-9.4-21-21s9.4-21,21-21s21,9.4,21,21C2539,198.7,2529.6,208.1,2518.1,208.1z
	 M2518.1,170.1c-9.4,0-17,7.6-17,17s7.6,17,17,17s17-7.6,17-17S2527.5,170.1,2518.1,170.1z"/>
<path class="st0" d="M2807.3,157.3c-11.6,0-21-9.4-21-21s9.4-21,21-21s21,9.4,21,21C2828.2,147.9,2818.8,157.3,2807.3,157.3z
	 M2807.3,119.3c-9.4,0-17,7.6-17,17s7.6,17,17,17s17-7.6,17-17C2824.3,127,2816.6,119.3,2807.3,119.3z"/>
<rect x="2539" y="186.2" class="st0" width="267.4" height="2"/>
<rect x="2806.3" y="156" class="st0" width="2" height="32.1"/>
<path class="st0" d="M2518.1,325.2c-11.6,0-21-9.4-21-21s9.4-21,21-21s21,9.4,21,21C2539,315.8,2529.6,325.2,2518.1,325.2z
	 M2518.1,287.2c-9.4,0-17,7.6-17,17s7.6,17,17,17s17-7.6,17-17C2535.1,294.9,2527.5,287.2,2518.1,287.2z"/>
<path class="st0" d="M2807.3,274.5c-11.6,0-21-9.4-21-21s9.4-21,21-21s21,9.4,21,21C2828.2,265.1,2818.8,274.5,2807.3,274.5z
	 M2807.3,236.5c-9.4,0-17,7.6-17,17s7.6,17,17,17s17-7.6,17-17S2816.6,236.5,2807.3,236.5z"/>
<rect x="2539" y="303.3" class="st0" width="267.4" height="2"/>
<rect x="2806.3" y="273.1" class="st0" width="2" height="32.1"/>
<path class="st0" d="M2518.1,442.4c-11.6,0-21-9.4-21-21c0-11.6,9.4-21,21-21s21,9.4,21,21C2539,433,2529.6,442.4,2518.1,442.4z
	 M2518.1,404.4c-9.4,0-17,7.6-17,17c0,9.4,7.6,17,17,17s17-7.6,17-17C2535.1,412,2527.5,404.4,2518.1,404.4z"/>
<path class="st0" d="M2807.3,391.6c-11.6,0-21-9.4-21-21s9.4-21,21-21s21,9.4,21,21C2828.2,382.2,2818.8,391.6,2807.3,391.6z
	 M2807.3,353.6c-9.4,0-17,7.6-17,17s7.6,17,17,17s17-7.6,17-17S2816.6,353.6,2807.3,353.6z"/>
<rect x="2539" y="420.4" class="st0" width="267.4" height="2"/>
<rect x="2806.3" y="390.3" class="st0" width="2" height="32.1"/>
<path class="st0" d="M2881.2,45.2c0-11.6,9.4-21,21-21s21,9.4,21,21s-9.4,21-21,21C2890.6,66.1,2881.2,56.7,2881.2,45.2z
	 M2919.2,45.2c0-9.4-7.6-17-17-17s-17,7.6-17,17s7.6,17,17,17C2911.5,62.2,2919.2,54.6,2919.2,45.2z"/>
<path class="st0" d="M2931.9,334.3c0-11.6,9.4-21,21-21s21,9.4,21,21s-9.4,21-21,21S2931.9,345.9,2931.9,334.3z M2969.9,334.3
	c0-9.4-7.6-17-17-17s-17,7.6-17,17s7.6,17,17,17C2962.3,351.4,2969.9,343.7,2969.9,334.3z"/>
<rect x="2901.1" y="66.1" class="st0" width="2" height="267.4"/>
<rect x="2901.1" y="333.4" class="st0" width="32.1" height="2"/>
<path class="st0" d="M2172.8,848.7c-11.6,0-21-9.4-21-21c0-11.6,9.4-21,21-21c11.6,0,21,9.4,21,21
	C2193.7,839.3,2184.3,848.7,2172.8,848.7z M2172.8,810.7c-9.4,0-17,7.6-17,17c0,9.4,7.6,17,17,17c9.4,0,17-7.6,17-17
	C2189.8,818.3,2182.2,810.7,2172.8,810.7z"/>
<rect x="2193.7" y="826.7" class="st0" width="267.4" height="2"/>
<path class="st0" d="M455.9,877.2c-8.2,8.2-21.5,8.2-29.6,0c-8.2-8.2-8.2-21.5,0-29.6c8.2-8.2,21.5-8.2,29.6,0
	C464.1,855.8,464.1,869.1,455.9,877.2z M429.1,850.4c-6.6,6.6-6.6,17.4,0,24.1c6.6,6.6,17.4,6.6,24.1,0c6.6-6.6,6.6-17.4,0-24.1
	C446.5,843.7,435.7,843.7,429.1,850.4z"/>
<rect x="416.7" y="752.1" transform="matrix(0.7071 -0.7071 0.7071 0.7071 -371.3025 609.761)" class="st0" width="267.4" height="2"/>
<path class="st0" d="M1379,882.7c-11.6,0-21-9.4-21-21c0-11.6,9.4-21,21-21c11.6,0,21,9.4,21,21C1400,873.3,1390.6,882.7,1379,882.7
	z M1379,844.7c-9.4,0-17,7.6-17,17c0,9.4,7.6,17,17,17c9.4,0,17-7.6,17-17C1396.1,852.3,1388.4,844.7,1379,844.7z"/>
<path class="st0" d="M1668.2,831.9c-11.6,0-21-9.4-21-21c0-11.6,9.4-21,21-21c11.6,0,21,9.4,21,21
	C1689.2,822.5,1679.8,831.9,1668.2,831.9z M1668.2,793.9c-9.4,0-17,7.6-17,17c0,9.4,7.6,17,17,17c9.4,0,17-7.6,17-17
	C1685.2,801.5,1677.6,793.9,1668.2,793.9z"/>
<rect x="1399.9" y="860.7" class="st0" width="267.4" height="2"/>
<rect x="1667.3" y="830.6" class="st0" width="2" height="32.1"/>
<path class="st0" d="M1683.4,1077.6H0v-8.9h1683.4c20.1,0,36.3-17.9,36.3-39.9V0h8v1028.8
	C1727.8,1055.7,1707.8,1077.6,1683.4,1077.6L1683.4,1077.6z"/>
<path class="st0" d="M3073.3,1808.6H2010.8c-25,0-45.3-17.5-45.3-39V1298c0-21.5,20.3-39,45.3-39h1062.5c25,0,45.3,17.5,45.3,39
	v471.5C3118.7,1791.1,3098.3,1808.6,3073.3,1808.6z M2010.8,1266.1c-20.5,0-37.1,14.3-37.1,31.9v471.5c0,17.6,16.6,31.9,37.1,31.9
	h1062.5c20.5,0,37.1-14.3,37.1-31.9V1298c0-17.6-16.6-31.9-37.1-31.9H2010.8z"/>
<polygon class="st0" points="1473.9,1245.5 0,1245.5 0,1241.6 1475.7,1241.6 1724.3,1472.5 3574.7,1472.5 3574.7,1476.4 
	1722.6,1476.4 "/>
<polygon class="st0" points="1473.9,1268.4 0,1268.4 0,1264.4 1475.7,1264.4 1724.3,1495.3 3574.7,1495.3 3574.7,1499.3 
	1722.6,1499.3 "/>
<polygon class="st0" points="1473.9,1291.2 0,1291.2 0,1287.2 1475.7,1287.2 1724.3,1518.1 3574.7,1518.1 3574.7,1522.1 
	1722.6,1522.1 "/>
<polygon class="st0" points="1473.9,1314 0,1314 0,1310 1475.7,1310 1724.3,1540.9 3574.7,1540.9 3574.7,1544.9 1722.6,1544.9 "/>
<polygon class="st0" points="1473.9,1336.8 0,1336.8 0,1332.9 1475.7,1332.9 1724.3,1563.9 3574.7,1563.9 3574.7,1567.8 
	1722.6,1567.8 "/>
<polygon class="st0" points="2872.9,977.1 3155.6,701.1 3155.6,0 3160.4,0 3160.4,703.1 2877.7,979.1 2877.7,2614.7 2872.9,2614.7 
	"/>
<polygon class="st0" points="927.2,2256.2 1215.2,1988.9 1215.2,0 1220.1,0 1220.1,1990.8 932.2,2258.1 932.2,2614.7 927.2,2614.7 
	"/>
<polygon class="st0" points="955.8,2256.2 1243.6,1988.9 1243.6,0 1248.6,0 1248.6,1990.8 960.6,2258.1 960.6,2614.7 955.8,2614.7 
	"/>
<polygon class="st0" points="984.3,2256.2 1272.1,1988.9 1272.1,0 1277,0 1277,1990.8 989.1,2258.1 989.1,2614.7 984.3,2614.7 "/>
<polygon class="st0" points="1012.7,2256.2 1300.7,1988.9 1300.7,0 1305.5,0 1305.5,1990.8 1017.7,2258.1 1017.7,2614.7 
	1012.7,2614.7 "/>
<polygon class="st0" points="1041.2,2256.2 1329,1988.9 1329,0 1334,0 1334,1990.8 1046.1,2258.1 1046.1,2614.7 1041.2,2614.7 "/>
<polygon class="st0" points="2424.1,1949 2672.9,1718 2672.9,0 2677.1,0 2677.1,1719.7 2428.4,1950.6 2428.4,2612.2 2424.1,2612.2 
	"/>
<polygon class="st0" points="2448.8,1949 2697.4,1718 2697.4,0 2701.7,0 2701.7,1719.7 2453,1950.6 2453,2612.2 2448.8,2612.2 "/>
<polygon class="st0" points="2473.3,1949 2722.1,1718 2722.1,0 2726.3,0 2726.3,1719.7 2477.6,1950.6 2477.6,2612.2 2473.3,2612.2 
	"/>
<polygon class="st0" points="2497.9,1949 2746.7,1718 2746.7,0 2750.9,0 2750.9,1719.7 2502.1,1950.6 2502.1,2612.2 2497.9,2612.2 
	"/>
<polygon class="st0" points="2522.6,1949 2771.2,1718 2771.2,0 2775.4,0 2775.4,1719.7 2526.8,1950.6 2526.8,2612.2 2522.6,2612.2 
	"/>
<path class="st0" d="M2615.3,939.2h-502.6c-25,0-45.3-17.5-45.3-39V467.8c0-21.5,20.3-39,45.3-39h502.6c25,0,45.3,17.5,45.3,39
	v432.4C2660.6,921.7,2640.3,939.2,2615.3,939.2z M2112.7,435.9c-20.5,0-37.1,14.3-37.1,31.9v432.4c0,17.6,16.6,31.9,37.1,31.9h502.6
	c20.5,0,37.1-14.3,37.1-31.9V467.8c0-17.6-16.6-31.9-37.1-31.9H2112.7z"/>
<path class="st0" d="M631.6,867.9H129c-25,0-45.3-17.5-45.3-39V396.5c0-21.5,20.3-39,45.3-39h502.6c25,0,45.3,17.5,45.3,39v432.4
	C676.9,850.4,656.6,867.9,631.6,867.9z M129,364.6c-20.5,0-37.1,14.3-37.1,31.9v432.4c0,17.6,16.6,31.9,37.1,31.9h502.6
	c20.5,0,37.1-14.3,37.1-31.9V396.5c0-17.6-16.6-31.9-37.1-31.9H129z"/>
<path class="st0" d="M844.4,2544.6H341.9c-25,0-45.3-17.5-45.3-39v-432.5c0-21.5,20.3-39,45.3-39h502.6c25,0,45.3,17.5,45.3,39
	v432.4C889.8,2527.1,869.4,2544.6,844.4,2544.6L844.4,2544.6z M341.9,2041.2c-20.5,0-37.1,14.3-37.1,31.9v432.4
	c0,17.6,16.6,31.9,37.1,31.9h502.6c20.5,0,37.1-14.3,37.1-31.9v-432.4c0-17.6-16.6-31.9-37.1-31.9L341.9,2041.2L341.9,2041.2z"/>
<ellipse class="st0" cx="2072.2" cy="755.7" rx="22.7" ry="19.5"/>
<path class="st0" d="M2081.1,807.7c0,4.2-4,7.7-8.9,7.7s-8.9-3.4-8.9-7.7c0-4.2,4-7.7,8.9-7.7S2081.1,803.4,2081.1,807.7z"/>
<path class="st0" d="M1261.2,2464.8l-8.2-0.5c0.6-7.4,0.4-357.9,0-683.4c0-17.6-16.7-31.9-37.1-31.9H91.5v-7.1h1124.4
	c25,0,45.3,17.5,45.3,39C1261.5,1939,1262,2455.6,1261.2,2464.8L1261.2,2464.8z"/>
<path class="st0" d="M1257.5,755.7c0,10.8-10.2,19.5-22.7,19.5s-22.7-8.7-22.7-19.5s10.2-19.5,22.7-19.5
	C1247.4,736.1,1257.5,744.9,1257.5,755.7z"/>
<ellipse class="st0" cx="1314.4" cy="692.4" rx="22.7" ry="19.5"/>
<path class="st0" d="M2257.7,1262.6c0,10.8-10.2,19.5-22.7,19.5s-22.7-8.7-22.7-19.5s10.2-19.5,22.7-19.5
	C2247.6,1243.1,2257.7,1251.8,2257.7,1262.6z"/>
<ellipse class="st0" cx="2932.8" cy="1262.6" rx="46.6" ry="40.1"/>
<ellipse class="st0" cx="868.7" cy="1074.1" rx="22.7" ry="19.5"/>
<ellipse class="st0" cx="1314.4" cy="1074.1" rx="48.5" ry="41.7"/>
<path class="st0" d="M721.3,616.6c0,23-21.7,41.7-48.5,41.7s-48.5-18.7-48.5-41.7s21.7-41.7,48.5-41.7S721.3,593.6,721.3,616.6z"/>
<ellipse class="st0" cx="672.8" cy="723.6" rx="30" ry="25.8"/>
<ellipse class="st0" cx="593.1" cy="2035.5" rx="48.5" ry="41.7"/>
<ellipse class="st0" cx="868.7" cy="1745.4" rx="22.7" ry="19.5"/>
<path class="st0" d="M2257.7,1805c0,10.8-10.2,19.5-22.7,19.5s-22.7-8.7-22.7-19.5s10.2-19.5,22.7-19.5
	C2247.6,1785.5,2257.7,1794.3,2257.7,1805z"/>
<path class="st0" d="M2330.1,1805c0,10.8-10.2,19.5-22.7,19.5s-22.7-8.7-22.7-19.5s10.2-19.5,22.7-19.5S2330.1,1794.3,2330.1,1805z"
	/>
<path class="st0" d="M2402.4,1805c0,10.8-10.2,19.5-22.7,19.5s-22.7-8.7-22.7-19.5s10.2-19.5,22.7-19.5S2402.4,1794.3,2402.4,1805z"
	/>
<ellipse class="st0" cx="868.7" cy="1549.3" rx="43.3" ry="37.2"/>
<path class="st0" d="M2583.1,888.6h-200.9c-2.2,0-4-1.8-4-4v-20c0-2.2,1.8-4,4-4h200.9c2.2,0,4,1.8,4,4v20
	C2587.2,886.8,2585.3,888.6,2583.1,888.6z"/>
<path class="st0" d="M2570.8,836.7h-176.3c-9,0-16.3-6.3-16.3-14s7.3-14,16.3-14h176.3c9,0,16.3,6.3,16.3,14
	C2587.2,830.4,2579.8,836.7,2570.8,836.7z"/>
<path class="st0" d="M2570.8,784.7h-176.3c-9,0-16.3-6.3-16.3-14s7.3-14,16.3-14h176.3c9,0,16.3,6.3,16.3,14
	C2587.2,778.4,2579.8,784.7,2570.8,784.7z"/>
<path class="st0" d="M890.9,709.8V592.4c0-6,5.7-10.9,12.6-10.9s12.6,4.9,12.6,10.9v117.4c0,6-5.7,10.9-12.6,10.9
	C896.5,720.7,890.9,715.8,890.9,709.8z"/>
<path class="st0" d="M937.6,709.8V592.4c0-6,5.7-10.9,12.6-10.9s12.6,4.9,12.6,10.9v117.4c0,6-5.7,10.9-12.6,10.9
	C943.2,720.7,937.6,715.8,937.6,709.8z"/>
<path class="st0" d="M984.3,709.8V592.4c0-6,5.7-10.9,12.6-10.9s12.6,4.9,12.6,10.9v117.4c0,6-5.7,10.9-12.6,10.9
	S984.3,715.8,984.3,709.8z"/>
<path class="st0" d="M1214.3,1420.4H992.4c-11.3,0-20.5-7.9-20.5-17.7c0-9.7,9.2-17.7,20.5-17.7h221.9c11.3,0,20.5,7.9,20.5,17.7
	C1234.9,1412.4,1225.6,1420.4,1214.3,1420.4z"/>
<path class="st0" d="M1214.3,1470.6H992.4c-11.3,0-20.5-7.9-20.5-17.7c0-9.7,9.2-17.7,20.5-17.7h221.9c11.3,0,20.5,7.9,20.5,17.7
	C1234.9,1462.7,1225.6,1470.6,1214.3,1470.6z"/>
<path class="st0" d="M1214.3,1520.8H992.4c-11.3,0-20.5-7.9-20.5-17.7c0-9.7,9.2-17.7,20.5-17.7h221.9c11.3,0,20.5,7.9,20.5,17.7
	C1234.9,1512.9,1225.6,1520.8,1214.3,1520.8z"/>
<path class="st0" d="M2762,2106c11.6,0,21,9.4,21,21c0,11.6-9.4,21-21,21s-21-9.4-21-21C2741,2115.4,2750.4,2106,2762,2106z
	 M2762,2144c9.4,0,17-7.6,17-17c0-9.4-7.6-17-17-17s-17,7.6-17,17C2744.9,2136.3,2752.6,2144,2762,2144z"/>
<path class="st0" d="M2602.5,2106c11.6,0,21,9.4,21,21c0,11.6-9.4,21-21,21s-21-9.4-21-21C2581.6,2115.4,2591,2106,2602.5,2106z
	 M2602.5,2144c9.4,0,17-7.6,17-17c0-9.4-7.6-17-17-17s-17,7.6-17,17C2585.5,2136.3,2593.1,2144,2602.5,2144z"/>
<rect x="2620.9" y="2126" class="st0" width="120.2" height="2"/>
<path class="st0" d="M1047.3,1962c0,11.6-9.4,21-21,21c-11.6,0-21-9.4-21-21s9.4-21,21-21C1037.9,1941.1,1047.3,1950.5,1047.3,1962z
	 M1009.3,1962c0,9.4,7.6,17,17,17c9.4,0,17-7.6,17-17s-7.6-17-17-17C1017,1945,1009.3,1952.6,1009.3,1962z"/>
<rect x="887" y="1960.2" class="st0" width="2" height="566.1"/>
<rect x="887" y="1960.1" class="st0" width="120.2" height="2"/>
<path class="st0" d="M2756.6,1816c11.6,0,21,9.4,21,21s-9.4,21-21,21s-21-9.4-21-21S2745,1816,2756.6,1816z M2756.6,1854
	c9.4,0,17-7.6,17-17s-7.6-17-17-17s-17,7.6-17,17S2747.2,1854,2756.6,1854z"/>
<path class="st0" d="M2667.2,1816c11.6,0,21,9.4,21,21s-9.4,21-21,21s-21-9.4-21-21S2655.6,1816,2667.2,1816z M2667.2,1854
	c9.4,0,17-7.6,17-17s-7.6-17-17-17s-17,7.6-17,17C2650.1,1846.4,2657.8,1854,2667.2,1854z"/>
<rect x="2685.9" y="1836" class="st0" width="49.8" height="2"/>
<path class="st0" d="M2065.7,2088.1c11.6,0,21,9.4,21,21c0,11.6-9.4,21-21,21c-11.6,0-21-9.4-21-21
	C2044.7,2097.6,2054.1,2088.1,2065.7,2088.1z M2065.7,2126.1c9.4,0,17-7.6,17-17c0-9.4-7.6-17-17-17c-9.4,0-17,7.6-17,17
	C2048.6,2118.5,2056.3,2126.1,2065.7,2126.1z"/>
<path class="st0" d="M1976.2,2088.1c11.6,0,21,9.4,21,21c0,11.6-9.4,21-21,21c-11.6,0-21-9.4-21-21
	C1955.3,2097.6,1964.7,2088.1,1976.2,2088.1z M1976.2,2126.1c9.4,0,17-7.6,17-17c0-9.4-7.6-17-17-17c-9.4,0-17,7.6-17,17
	C1959.2,2118.5,1966.8,2126.1,1976.2,2126.1z"/>
<rect x="1995" y="2108.1" class="st0" width="49.8" height="2"/>
<path class="st0" d="M2065.7,1853.9c11.6,0,21,9.4,21,21s-9.4,21-21,21c-11.6,0-21-9.4-21-21S2054.1,1853.9,2065.7,1853.9z
	 M2065.7,1891.9c9.4,0,17-7.6,17-17s-7.6-17-17-17c-9.4,0-17,7.6-17,17C2048.6,1884.2,2056.3,1891.9,2065.7,1891.9z"/>
<path class="st0" d="M1976.2,1853.9c11.6,0,21,9.4,21,21s-9.4,21-21,21c-11.6,0-21-9.4-21-21
	C1955.3,1863.3,1964.7,1853.9,1976.2,1853.9z M1976.2,1891.9c9.4,0,17-7.6,17-17s-7.6-17-17-17c-9.4,0-17,7.6-17,17
	C1959.2,1884.2,1966.8,1891.9,1976.2,1891.9z"/>
<rect x="1995" y="1873.9" class="st0" width="49.8" height="2"/>
<path class="st0" d="M2354.3,1843.2c11.6,0,21,9.4,21,21s-9.4,21-21,21s-21-9.4-21-21C2333.4,1852.6,2342.8,1843.2,2354.3,1843.2z
	 M2354.3,1881.2c9.4,0,17-7.6,17-17s-7.6-17-17-17s-17,7.6-17,17S2344.9,1881.2,2354.3,1881.2z"/>
<path class="st0" d="M2264.9,1843.2c11.6,0,21,9.4,21,21s-9.4,21-21,21c-11.6,0-21-9.4-21-21S2253.3,1843.2,2264.9,1843.2z
	 M2264.9,1881.2c9.4,0,17-7.6,17-17s-7.6-17-17-17c-9.4,0-17,7.6-17,17S2255.5,1881.2,2264.9,1881.2z"/>
<rect x="2283.7" y="1863.2" class="st0" width="49.8" height="2"/>
<path class="st0" d="M2473.7,1861.8c0-11.6,9.4-21,21-21s21,9.4,21,21s-9.4,21-21,21C2483.1,1882.7,2473.7,1873.3,2473.7,1861.8z
	 M2511.7,1861.8c0-9.4-7.6-17-17-17s-17,7.6-17,17s7.6,17,17,17C2504,1878.8,2511.7,1871.2,2511.7,1861.8z"/>
<path class="st0" d="M2473.7,1951.2c0-11.6,9.4-21,21-21s21,9.4,21,21s-9.4,21-21,21C2483.1,1972.1,2473.7,1962.7,2473.7,1951.2z
	 M2511.7,1951.2c0-9.4-7.6-17-17-17s-17,7.6-17,17s7.6,17,17,17C2504,1968.2,2511.7,1960.6,2511.7,1951.2z"/>
<rect x="2493.7" y="1882.6" class="st0" width="2" height="49.8"/>
<path class="st0" d="M2936.6,1974.1c7.9-7.9,8.1-20.7,0.7-28.9l174.7-174.7c8.2,7.5,21,7.3,28.9-0.7c8.2-8.2,8.2-21.5,0-29.7
	s-21.5-8.2-29.6,0c-7.9,7.9-8.1,20.7-0.7,28.9l-174.7,174.7c-8.2-7.5-21-7.3-28.9,0.7c-8.2,8.2-8.2,21.5,0,29.6
	C2915.1,1982.2,2928.4,1982.2,2936.6,1974.1z M3114,1742.9c6.6-6.6,17.4-6.6,24.1,0c6.6,6.6,6.6,17.4,0,24.1
	c-6.6,6.6-17.4,6.6-24.1,0C3107.4,1760.3,3107.4,1749.5,3114,1742.9z M2909.7,1947.2c6.6-6.6,17.4-6.6,24.1,0
	c6.6,6.6,6.6,17.4,0,24.1c-6.6,6.6-17.4,6.6-24.1,0C2903.1,1964.6,2903.1,1953.8,2909.7,1947.2z"/>
<path class="st0" d="M3224.7,1981.8c7.9-7.9,8.1-20.7,0.7-28.9l174.7-174.7c8.2,7.5,21,7.3,28.9-0.7c8.2-8.2,8.2-21.5,0-29.6
	c-8.2-8.2-21.5-8.2-29.6,0c-7.9,7.9-8.1,20.7-0.7,28.9L3224,1951.5c-8.2-7.5-21-7.3-28.9,0.7c-8.2,8.2-8.2,21.5,0,29.6
	C3203.2,1990,3216.5,1990,3224.7,1981.8z M3402.1,1750.6c6.6-6.6,17.4-6.6,24.1,0c6.6,6.6,6.6,17.4,0,24.1c-6.6,6.6-17.4,6.6-24.1,0
	C3395.5,1768.1,3395.5,1757.3,3402.1,1750.6z M3197.8,1954.9c6.6-6.6,17.4-6.6,24.1,0c6.6,6.6,6.6,17.4,0,24.1
	c-6.6,6.6-17.4,6.6-24.1,0C3191.2,1972.4,3191.2,1961.6,3197.8,1954.9z"/>
<path class="st0" d="M2831.4,1974.1c7.9-7.9,8.1-20.7,0.7-28.9l174.7-174.7c8.2,7.5,21,7.3,28.9-0.7c8.2-8.2,8.2-21.5,0-29.7
	s-21.5-8.2-29.6,0c-7.9,7.9-8.1,20.7-0.7,28.9l-174.7,174.7c-8.2-7.5-21-7.3-28.9,0.7c-8.2,8.2-8.2,21.5,0,29.6
	C2810,1982.2,2823.3,1982.2,2831.4,1974.1z M3008.9,1742.9c6.6-6.6,17.4-6.6,24.1,0c6.6,6.6,6.6,17.4,0,24.1
	c-6.6,6.6-17.4,6.6-24.1,0C3002.2,1760.3,3002.2,1749.5,3008.9,1742.9z M2804.6,1947.2c6.6-6.6,17.4-6.6,24.1,0
	c6.6,6.6,6.6,17.4,0,24.1c-6.6,6.6-17.4,6.6-24.1,0C2797.9,1964.6,2797.9,1953.8,2804.6,1947.2z"/>
<path class="st0" d="M808.3,2218.1c0-11.2-8.9-20.4-20-20.9v-247.1c11.1-0.5,20-9.7,20-20.9c0-11.6-9.4-21-21-21s-21,9.4-21,21
	c0,11.2,8.9,20.4,20,20.9v247.1c-11.1,0.5-20,9.7-20,20.9c0,11.6,9.4,21,21,21C798.9,2239,808.3,2229.6,808.3,2218.1z M770.3,1929.1
	c0-9.4,7.6-17,17-17c9.4,0,17,7.6,17,17s-7.6,17-17,17C777.9,1946.2,770.3,1938.5,770.3,1929.1z M770.3,2218.1c0-9.4,7.6-17,17-17
	c9.4,0,17,7.6,17,17c0,9.4-7.6,17-17,17S770.3,2227.5,770.3,2218.1z"/>
<path class="st0" d="M718.6,2218.1c0-11.2-8.9-20.4-20-20.9v-247.1c11.1-0.5,20-9.7,20-20.9c0-11.6-9.4-21-21-21s-21,9.4-21,21
	c0,11.2,8.9,20.4,20,20.9v247.1c-11.1,0.5-20,9.7-20,20.9c0,11.6,9.4,21,21,21C709.2,2239,718.6,2229.6,718.6,2218.1z M680.6,1929.1
	c0-9.4,7.6-17,17-17s17,7.6,17,17s-7.6,17-17,17C688.3,1946.2,680.6,1938.5,680.6,1929.1z M680.6,2218.1c0-9.4,7.6-17,17-17
	s17,7.6,17,17c0,9.4-7.6,17-17,17C688.3,2235.1,680.6,2227.5,680.6,2218.1z"/>
<path class="st0" d="M629,2218.1c0-11.2-8.9-20.4-20-20.9v-247.1c11.1-0.5,20-9.7,20-20.9c0-11.6-9.4-21-21-21s-21,9.4-21,21
	c0,11.2,8.9,20.4,20,20.9v247.1c-11.1,0.5-20,9.7-20,20.9c0,11.6,9.4,21,21,21C619.6,2239,629,2229.6,629,2218.1z M591,1929.1
	c0-9.4,7.6-17,17-17s17,7.6,17,17s-7.6,17-17,17C598.6,1946.2,591,1938.5,591,1929.1z M591,2218.1c0-9.4,7.6-17,17-17s17,7.6,17,17
	c0,9.4-7.6,17-17,17S591,2227.5,591,2218.1z"/>
<path class="st0" d="M539.3,2218.1c0-11.2-8.9-20.4-20-20.9v-247.1c11.1-0.5,20-9.7,20-20.9c0-11.6-9.4-21-21-21
	c-11.6,0-21,9.4-21,21c0,11.2,8.9,20.4,20,20.9v247.1c-11.1,0.5-20,9.7-20,20.9c0,11.6,9.4,21,21,21
	C529.9,2239,539.3,2229.6,539.3,2218.1z M501.3,1929.1c0-9.4,7.6-17,17-17c9.4,0,17,7.6,17,17s-7.6,17-17,17
	C508.9,1946.2,501.3,1938.5,501.3,1929.1z M501.3,2218.1c0-9.4,7.6-17,17-17c9.4,0,17,7.6,17,17c0,9.4-7.6,17-17,17
	C508.9,2235.1,501.3,2227.5,501.3,2218.1z"/>
<path class="st0" d="M2708.6,1974.1c7.9-7.9,8.1-20.7,0.7-28.9l174.7-174.7c8.2,7.5,21,7.3,28.9-0.7c8.2-8.2,8.2-21.5,0-29.7
	s-21.5-8.2-29.6,0c-7.9,7.9-8.1,20.7-0.7,28.9l-174.7,174.7c-8.2-7.5-21-7.3-28.9,0.7c-8.2,8.2-8.2,21.5,0,29.6
	C2687.1,1982.2,2700.4,1982.2,2708.6,1974.1z M2886,1742.9c6.6-6.6,17.4-6.6,24.1,0c6.6,6.6,6.6,17.4,0,24.1
	c-6.6,6.6-17.4,6.6-24.1,0C2879.4,1760.3,2879.4,1749.5,2886,1742.9z M2681.7,1947.2c6.6-6.6,17.4-6.6,24.1,0
	c6.6,6.6,6.6,17.4,0,24.1c-6.6,6.6-17.4,6.6-24.1,0C2675.1,1964.6,2675.1,1953.8,2681.7,1947.2z"/>
<path class="st0" d="M1946.7,1794c8.2-8.2,21.5-8.2,29.6,0c8.2,8.2,8.2,21.5,0,29.6c-8.2,8.2-21.5,8.2-29.7,0
	C1938.5,1815.5,1938.5,1802.2,1946.7,1794z M1973.6,1820.9c6.6-6.6,6.6-17.4,0-24.1c-6.6-6.6-17.4-6.6-24.1,0
	c-6.6,6.6-6.6,17.4,0,24.1C1956.1,1827.6,1966.9,1827.6,1973.6,1820.9z"/>
<path class="st0" d="M1833.9,1906.8c8.2-8.2,21.5-8.2,29.6,0c8.2,8.2,8.2,21.5,0,29.6c-8.2,8.2-21.5,8.2-29.7,0
	C1825.8,1928.3,1825.8,1915,1833.9,1906.8z M1860.8,1933.7c6.6-6.6,6.6-17.4,0-24.1c-6.6-6.6-17.4-6.6-24.1,0
	c-6.6,6.6-6.6,17.4,0,24.1C1843.4,1940.3,1854.2,1940.3,1860.8,1933.7z"/>
<rect x="1844.1" y="1865.3" transform="matrix(0.7071 -0.7071 0.7071 0.7071 -761.9273 1893.0981)" class="st0" width="120.2" height="2"/>
<path class="st0" d="M1946.7,1911.2c8.2-8.2,21.5-8.2,29.6,0c8.2,8.2,8.2,21.5,0,29.6c-8.2,8.2-21.5,8.2-29.7,0
	C1938.5,1932.7,1938.5,1919.4,1946.7,1911.2z M1973.6,1938c6.6-6.6,6.6-17.4,0-24.1c-6.6-6.6-17.4-6.6-24.1,0
	c-6.6,6.6-6.6,17.4,0,24.1C1956.1,1944.7,1966.9,1944.7,1973.6,1938z"/>
<path class="st0" d="M1833.9,2023.9c8.2-8.2,21.5-8.2,29.6,0c8.2,8.2,8.2,21.5,0,29.6c-8.2,8.2-21.5,8.2-29.7,0
	C1825.8,2045.4,1825.8,2032.1,1833.9,2023.9z M1860.8,2050.8c6.6-6.6,6.6-17.4,0-24.1c-6.6-6.6-17.4-6.6-24.1,0
	c-6.6,6.6-6.6,17.4,0,24.1C1843.4,2057.4,1854.2,2057.4,1860.8,2050.8z"/>
<rect x="1844.1" y="1982.4" transform="matrix(0.7071 -0.7071 0.7071 0.7071 -844.7221 1927.3868)" class="st0" width="120.2" height="2"/>
<path class="st0" d="M1946.7,2028.3c8.2-8.2,21.5-8.2,29.6,0c8.2,8.2,8.2,21.5,0,29.6c-8.2,8.2-21.5,8.2-29.7,0
	C1938.5,2049.8,1938.5,2036.5,1946.7,2028.3z M1973.6,2055.2c6.6-6.6,6.6-17.4,0-24.1c-6.6-6.6-17.4-6.6-24.1,0
	c-6.6,6.6-6.6,17.4,0,24.1C1956.1,2061.8,1966.9,2061.8,1973.6,2055.2z"/>
<path class="st0" d="M1833.9,2141.1c8.2-8.2,21.5-8.2,29.6,0c8.2,8.2,8.2,21.5,0,29.7s-21.5,8.2-29.7,0
	C1825.8,2162.5,1825.8,2149.2,1833.9,2141.1z M1860.8,2167.9c6.6-6.6,6.6-17.4,0-24.1c-6.6-6.6-17.4-6.6-24.1,0
	c-6.6,6.6-6.6,17.4,0,24.1C1843.4,2174.6,1854.2,2174.6,1860.8,2167.9z"/>
<rect x="1844.1" y="2099.4" transform="matrix(0.7071 -0.7071 0.7071 0.7071 -927.4504 1961.6504)" class="st0" width="120.2" height="2"/>
<path class="st0" d="M1946.7,2145.4c8.2-8.2,21.5-8.2,29.6,0c8.2,8.2,8.2,21.5,0,29.7s-21.5,8.2-29.7,0
	C1938.5,2166.9,1938.5,2153.6,1946.7,2145.4z M1973.6,2172.3c6.6-6.6,6.6-17.4,0-24.1c-6.6-6.6-17.4-6.6-24.1,0
	c-6.6,6.6-6.6,17.4,0,24.1C1956.1,2179,1966.9,2179,1973.6,2172.3z"/>
<path class="st0" d="M1833.9,2258.2c8.2-8.2,21.5-8.2,29.6,0c8.2,8.2,8.2,21.5,0,29.7s-21.5,8.2-29.7,0
	C1825.8,2279.7,1825.8,2266.4,1833.9,2258.2z M1860.8,2285.1c6.6-6.6,6.6-17.4,0-24.1c-6.6-6.6-17.4-6.6-24.1,0
	c-6.6,6.6-6.6,17.4,0,24.1C1843.4,2291.7,1854.2,2291.7,1860.8,2285.1z"/>
<rect x="1844.1" y="2216.6" transform="matrix(0.7071 -0.7071 0.7071 0.7071 -1010.3619 1995.9559)" class="st0" width="120.2" height="2"/>
<path class="st0" d="M2675,1879.8c11.6,0,21,9.4,21,21s-9.4,21-21,21s-21-9.4-21-21S2663.4,1879.8,2675,1879.8z M2675,1917.8
	c9.4,0,17-7.6,17-17s-7.6-17-17-17s-17,7.6-17,17C2657.9,1910.1,2665.6,1917.8,2675,1917.8z"/>
<path class="st0" d="M2603.4,1930.5c11.6,0,21,9.4,21,21s-9.4,21-21,21s-21-9.4-21-21S2591.8,1930.5,2603.4,1930.5z M2603.4,1968.5
	c9.4,0,17-7.6,17-17s-7.6-17-17-17s-17,7.6-17,17S2594,1968.5,2603.4,1968.5z"/>
<rect x="2604.3" y="1899.7" class="st0" width="49.8" height="2"/>
<rect x="2602.3" y="1899.7" class="st0" width="2" height="32.1"/>
<path class="st0" d="M2483.3,1764.7c11.6,0,21,9.4,21,21s-9.4,21-21,21s-21-9.4-21-21S2471.8,1764.7,2483.3,1764.7z M2483.3,1802.7
	c9.4,0,17-7.6,17-17s-7.6-17-17-17s-17,7.6-17,17S2473.9,1802.7,2483.3,1802.7z"/>
<path class="st0" d="M2239,1787.2c11.6,0,21,9.4,21,21s-9.4,21-21,21c-11.6,0-21-9.4-21-21C2218.1,1796.6,2227.5,1787.2,2239,1787.2
	z M2239,1825.2c9.4,0,17-7.6,17-17s-7.6-17-17-17c-9.4,0-17,7.6-17,17S2229.6,1825.2,2239,1825.2z"/>
<rect x="2412.6" y="1784.7" class="st0" width="49.8" height="2"/>
<rect x="2258.3" y="1806.8" class="st0" width="133.1" height="2"/>
<rect x="2385.9" y="1795.8" transform="matrix(0.7071 -0.7071 0.7071 0.7071 -567.0219 2224.6697)" class="st0" width="32.1" height="2"/>
<path class="st0" d="M2806.3,1612.7c11.6,0,21,9.4,21,21s-9.4,21-21,21s-21-9.4-21-21S2794.7,1612.7,2806.3,1612.7z M2806.3,1650.7
	c9.4,0,17-7.6,17-17s-7.6-17-17-17s-17,7.6-17,17C2789.2,1643,2796.9,1650.7,2806.3,1650.7z"/>
<path class="st0" d="M2562,1635.2c11.6,0,21,9.4,21,21s-9.4,21-21,21s-21-9.4-21-21S2550.4,1635.2,2562,1635.2z M2562,1673.2
	c9.4,0,17-7.6,17-17s-7.6-17-17-17s-17,7.6-17,17S2552.6,1673.2,2562,1673.2z"/>
<rect x="2735.6" y="1632.7" class="st0" width="49.8" height="2"/>
<rect x="2581.2" y="1654.8" class="st0" width="133.1" height="2"/>
<rect x="2708.9" y="1643.7" transform="matrix(0.7071 -0.7071 0.7071 0.7071 -364.8513 2408.5344)" class="st0" width="32.1" height="2"/>
<path class="st0" d="M2463.7,2018.5c0-11.6,9.4-21,21-21s21,9.4,21,21s-9.4,21-21,21S2463.7,2030.1,2463.7,2018.5z M2501.7,2018.5
	c0-9.4-7.6-17-17-17s-17,7.6-17,17s7.6,17,17,17C2494.1,2035.6,2501.7,2027.9,2501.7,2018.5z"/>
<path class="st0" d="M2612.8,2237.7c0-11.6,9.4-21,21-21s21,9.4,21,21c0,11.6-9.4,21-21,21
	C2622.2,2258.6,2612.8,2249.2,2612.8,2237.7z M2650.8,2237.7c0-9.4-7.6-17-17-17s-17,7.6-17,17c0,9.4,7.6,17,17,17
	C2643.1,2254.7,2650.8,2247.1,2650.8,2237.7z"/>
<rect x="2483.7" y="2039.4" class="st0" width="2" height="49.8"/>
<rect x="2550.9" y="2060.6" transform="matrix(0.7071 -0.7071 0.7071 0.7071 -777.0791 2435.9209)" class="st0" width="2" height="190.8"/>
<path class="st0" d="M1551.5,1861.8c0-11.6,9.4-21,21-21c11.6,0,21,9.4,21,21s-9.4,21-21,21
	C1560.9,1882.7,1551.5,1873.3,1551.5,1861.8z M1589.5,1861.8c0-9.4-7.6-17-17-17c-9.4,0-17,7.6-17,17s7.6,17,17,17
	C1581.9,1878.8,1589.5,1871.2,1589.5,1861.8z"/>
<path class="st0" d="M1700.6,2505.7c0-11.6,9.4-21,21-21c11.6,0,21,9.4,21,21c0,11.6-9.4,21-21,21
	C1710,2526.6,1700.6,2517.2,1700.6,2505.7z M1738.6,2505.7c0-9.4-7.6-17-17-17c-9.4,0-17,7.6-17,17c0,9.4,7.6,17,17,17
	C1730.9,2522.7,1738.6,2515.1,1738.6,2505.7z"/>
<rect x="1571.5" y="1880.3" class="st0" width="2" height="476.8"/>
<rect x="1638.6" y="2328.5" transform="matrix(0.7071 -0.7071 0.7071 0.7071 -1233.7267 1869.2924)" class="st0" width="2" height="190.8"/>
<path class="st0" d="M1478.8,1861.8c0-11.6,9.4-21,21-21c11.6,0,21,9.4,21,21s-9.4,21-21,21
	C1488.2,1882.7,1478.8,1873.3,1478.8,1861.8z M1516.8,1861.8c0-9.4-7.6-17-17-17c-9.4,0-17,7.6-17,17s7.6,17,17,17
	C1509.1,1878.8,1516.8,1871.2,1516.8,1861.8z"/>
<path class="st0" d="M1627.8,2505.7c0-11.6,9.4-21,21-21c11.6,0,21,9.4,21,21c0,11.6-9.4,21-21,21
	C1637.2,2526.6,1627.8,2517.2,1627.8,2505.7z M1665.8,2505.7c0-9.4-7.6-17-17-17c-9.4,0-17,7.6-17,17c0,9.4,7.6,17,17,17
	C1658.2,2522.7,1665.8,2515.1,1665.8,2505.7z"/>
<rect x="1498.7" y="1880.3" class="st0" width="2" height="476.8"/>
<rect x="1565.8" y="2328.6" transform="matrix(0.7071 -0.7071 0.7071 0.7071 -1255.103 1817.8469)" class="st0" width="2" height="190.8"/>
<path class="st0" d="M1406,1861.8c0-11.6,9.4-21,21-21c11.6,0,21,9.4,21,21s-9.4,21-21,21C1415.4,1882.7,1406,1873.3,1406,1861.8z
	 M1444,1861.8c0-9.4-7.6-17-17-17c-9.4,0-17,7.6-17,17s7.6,17,17,17C1436.4,1878.8,1444,1871.2,1444,1861.8z"/>
<path class="st0" d="M1555.1,2505.7c0-11.6,9.4-21,21-21c11.6,0,21,9.4,21,21c0,11.6-9.4,21-21,21
	C1564.5,2526.6,1555.1,2517.2,1555.1,2505.7z M1593.1,2505.7c0-9.4-7.6-17-17-17c-9.4,0-17,7.6-17,17c0,9.4,7.6,17,17,17
	C1585.4,2522.7,1593.1,2515.1,1593.1,2505.7z"/>
<rect x="1426" y="1880.3" class="st0" width="2" height="476.8"/>
<rect x="1493.1" y="2328.5" transform="matrix(0.7071 -0.7071 0.7071 0.7071 -1276.3417 1766.4227)" class="st0" width="2" height="190.8"/>
<path class="st0" d="M2059.3,1649.1c11.6,0,21,9.4,21,21s-9.4,21-21,21c-11.6,0-21-9.4-21-21S2047.7,1649.1,2059.3,1649.1z
	 M2059.3,1687.1c9.4,0,17-7.6,17-17s-7.6-17-17-17c-9.4,0-17,7.6-17,17S2049.9,1687.1,2059.3,1687.1z"/>
<path class="st0" d="M1840.1,1798.2c11.6,0,21,9.4,21,21s-9.4,21-21,21c-11.6,0-21-9.4-21-21
	C1819.2,1807.6,1828.6,1798.2,1840.1,1798.2z M1840.1,1836.2c9.4,0,17-7.6,17-17s-7.6-17-17-17c-9.4,0-17,7.6-17,17
	C1823.1,1828.5,1830.8,1836.2,1840.1,1836.2z"/>
<rect x="1988.6" y="1669.1" class="st0" width="49.8" height="2"/>
<rect x="1826.4" y="1736.4" transform="matrix(0.7071 -0.7071 0.7071 0.7071 -665.6226 1867.7777)" class="st0" width="190.8" height="2"/>
<path class="st0" d="M519.8,1822.5c11.6,0,21,9.4,21,21s-9.4,21-21,21c-11.6,0-21-9.4-21-21S508.2,1822.5,519.8,1822.5z
	 M519.8,1860.5c9.4,0,17-7.6,17-17s-7.6-17-17-17c-9.4,0-17,7.6-17,17C502.7,1852.9,510.4,1860.5,519.8,1860.5z"/>
<path class="st0" d="M300.6,1971.6c11.6,0,21,9.4,21,21s-9.4,21-21,21c-11.6,0-21-9.4-21-21C279.7,1981,289.1,1971.6,300.6,1971.6z
	 M300.6,2009.6c9.4,0,17-7.6,17-17s-7.6-17-17-17c-9.4,0-17,7.6-17,17C283.6,2001.9,291.2,2009.6,300.6,2009.6z"/>
<rect x="449.1" y="1842.5" class="st0" width="49.8" height="2"/>
<rect x="286.9" y="1909.7" transform="matrix(0.7071 -0.7071 0.7071 0.7071 -1239.088 829.9396)" class="st0" width="190.8" height="2"/>
<path class="st0" d="M1668.9,1471.6c11.6,0,21,9.4,21,21s-9.4,21-21,21c-11.6,0-21-9.4-21-21S1657.3,1471.6,1668.9,1471.6z
	 M1668.9,1509.6c9.4,0,17-7.6,17-17s-7.6-17-17-17c-9.4,0-17,7.6-17,17C1651.8,1502,1659.5,1509.6,1668.9,1509.6z"/>
<path class="st0" d="M1449.7,1620.7c11.6,0,21,9.4,21,21s-9.4,21-21,21c-11.6,0-21-9.4-21-21S1438.2,1620.7,1449.7,1620.7z
	 M1449.7,1658.7c9.4,0,17-7.6,17-17s-7.6-17-17-17c-9.4,0-17,7.6-17,17C1432.7,1651,1440.3,1658.7,1449.7,1658.7z"/>
<rect x="1598.2" y="1491.6" class="st0" width="49.8" height="2"/>
<rect x="1436" y="1558.8" transform="matrix(0.7071 -0.7071 0.7071 0.7071 -654.4084 1539.6978)" class="st0" width="190.8" height="2"/>
<path class="st0" d="M1770.6,1536c11.6,0,21,9.4,21,21s-9.4,21-21,21c-11.6,0-21-9.4-21-21C1749.7,1545.4,1759.1,1536,1770.6,1536z
	 M1770.6,1574c9.4,0,17-7.6,17-17s-7.6-17-17-17c-9.4,0-17,7.6-17,17C1753.6,1566.3,1761.2,1574,1770.6,1574z"/>
<path class="st0" d="M842.8,1819.5c11.6,0,21,9.4,21,21s-9.4,21-21,21s-21-9.4-21-21S831.2,1819.5,842.8,1819.5z M842.8,1857.4
	c9.4,0,17-7.6,17-17s-7.6-17-17-17s-17,7.6-17,17C825.7,1849.8,833.4,1857.4,842.8,1857.4z"/>
<rect x="991.2" y="1690.4" class="st0" width="480.8" height="2"/>
<rect x="1605.6" y="1556" class="st0" width="144.5" height="2"/>
<rect x="829.1" y="1757.6" transform="matrix(0.7071 -0.7071 0.7071 0.7071 -972.7471 1168.8038)" class="st0" width="190.8" height="2"/>
<rect x="1443.4" y="1623.2" transform="matrix(0.7071 -0.7071 0.7071 0.7071 -697.7804 1563.7902)" class="st0" width="190.8" height="2"/>
<path class="st0" d="M3138.2,1661.4c11.6,0,21,9.4,21,21s-9.4,21-21,21s-21-9.4-21-21C3117.3,1670.8,3126.7,1661.4,3138.2,1661.4z
	 M3138.2,1699.4c9.4,0,17-7.6,17-17s-7.6-17-17-17s-17,7.6-17,17C3121.2,1691.7,3128.8,1699.4,3138.2,1699.4z"/>
<path class="st0" d="M2609.5,1810.4c11.6,0,21,9.4,21,21s-9.4,21-21,21s-21-9.4-21-21C2588.6,1819.8,2598,1810.4,2609.5,1810.4z
	 M2609.5,1848.4c9.4,0,17-7.6,17-17s-7.6-17-17-17s-17,7.6-17,17S2600.1,1848.4,2609.5,1848.4z"/>
<rect x="2758" y="1681.4" class="st0" width="360.6" height="2"/>
<rect x="2595.7" y="1748.6" transform="matrix(0.7071 -0.7071 0.7071 0.7071 -448.9287 2415.2947)" class="st0" width="190.8" height="2"/>
<path class="st0" d="M3368.6,1665.6c11.6,0,21,9.4,21,21s-9.4,21-21,21s-21-9.4-21-21C3347.7,1675,3357.1,1665.6,3368.6,1665.6z
	 M3368.6,1703.6c9.4,0,17-7.6,17-17s-7.6-17-17-17s-17,7.6-17,17C3351.6,1695.9,3359.2,1703.6,3368.6,1703.6z"/>
<path class="st0" d="M3221.6,1716.3c11.6,0,21,9.4,21,21s-9.4,21-21,21s-21-9.4-21-21C3200.7,1725.8,3210.1,1716.3,3221.6,1716.3z
	 M3221.6,1754.3c9.4,0,17-7.6,17-17s-7.6-17-17-17s-17,7.6-17,17S3212.2,1754.3,3221.6,1754.3z"/>
<rect x="3221.3" y="1685.6" class="st0" width="126.4" height="2"/>
<rect x="3220.6" y="1685.6" class="st0" width="2" height="32.1"/>
<path class="st0" d="M3221.6,1655c-11.6,0-21-9.4-21-21s9.4-21,21-21s21,9.4,21,21S3233.2,1655,3221.6,1655z M3221.6,1617
	c-9.4,0-17,7.6-17,17s7.6,17,17,17s17-7.6,17-17C3238.7,1624.7,3231,1617,3221.6,1617z"/>
<rect x="3220.6" y="1653.7" class="st0" width="2" height="32.1"/>
<path class="st0" d="M1369,1442.1c-8.2-8.2-8.2-21.5,0-29.6c8.2-8.2,21.5-8.2,29.6,0c8.2,8.2,8.2,21.5,0,29.7
	C1390.5,1450.3,1377.2,1450.3,1369,1442.1L1369,1442.1z M1395.9,1415.3c-6.6-6.6-17.4-6.6-24.1,0c-6.6,6.6-6.6,17.4,0,24.1
	c6.6,6.6,17.4,6.6,24.1,0C1402.5,1432.7,1402.5,1421.9,1395.9,1415.3z"/>
<path class="st0" d="M1508.9,1510.2c-8.2-8.2-8.2-21.5,0-29.6c8.2-8.2,21.5-8.2,29.6,0c8.2,8.2,8.2,21.5,0,29.6
	C1530.3,1518.4,1517,1518.4,1508.9,1510.2z M1535.7,1483.3c-6.6-6.6-17.4-6.6-24.1,0c-6.6,6.6-6.6,17.4,0,24.1
	c6.6,6.6,17.4,6.6,24.1,0S1542.4,1490,1535.7,1483.3z"/>
<rect x="1442.3" y="1423.6" transform="matrix(0.7071 -0.7071 0.7071 0.7071 -628.5862 1456.0332)" class="st0" width="2" height="126.4"/>
<rect x="1482.4" y="1519.8" transform="matrix(0.7071 -0.7071 0.7071 0.7071 -636.4633 1504.9977)" class="st0" width="32.1" height="2"/>
<path class="st0" d="M1465.5,1553.6c8.2,8.2,8.2,21.5,0,29.6c-8.2,8.2-21.5,8.2-29.6,0c-8.2-8.2-8.2-21.5,0-29.7
	C1444,1545.4,1457.3,1545.4,1465.5,1553.6z M1438.6,1580.4c6.6,6.6,17.4,6.6,24.1,0c6.6-6.6,6.6-17.4,0-24.1
	c-6.6-6.6-17.4-6.6-24.1,0C1432,1563,1432,1573.8,1438.6,1580.4z"/>
<rect x="1459.9" y="1542.2" transform="matrix(0.7071 -0.7071 0.7071 0.7071 -658.9128 1495.6528)" class="st0" width="32.1" height="2"/>
<path class="st0" d="M1081.2,2036c11.6,0,21,9.4,21,21c0,11.6-9.4,21-21,21c-11.6,0-21-9.4-21-21
	C1060.2,2045.4,1069.6,2036,1081.2,2036z M1081.2,2074c9.4,0,17-7.6,17-17c0-9.4-7.6-17-17-17c-9.4,0-17,7.6-17,17
	C1064.1,2066.4,1071.8,2074,1081.2,2074z"/>
<path class="st0" d="M934.2,2086.8c11.6,0,21,9.4,21,21c0,11.6-9.4,21-21,21s-21-9.4-21-21C913.2,2096.2,922.6,2086.8,934.2,2086.8z
	 M934.2,2124.8c9.4,0,17-7.6,17-17c0-9.4-7.6-17-17-17s-17,7.6-17,17C917.1,2117.1,924.8,2124.8,934.2,2124.8z"/>
<rect x="933.8" y="2056" class="st0" width="126.4" height="2"/>
<rect x="933.1" y="2056" class="st0" width="2" height="32.1"/>
<path class="st0" d="M934.2,2025.4c-11.6,0-21-9.4-21-21s9.4-21,21-21s21,9.4,21,21C955.1,2016,945.7,2025.4,934.2,2025.4z
	 M934.2,1987.5c-9.4,0-17,7.6-17,17s7.6,17,17,17s17-7.6,17-17S943.6,1987.5,934.2,1987.5z"/>
<rect x="933.1" y="2024.1" class="st0" width="2" height="32.1"/>
<path class="st0" d="M645.3,2417.8c-11.6,0-21-9.4-21-21c0-11.6,9.4-21,21-21s21,9.4,21,21C666.3,2408.4,656.9,2417.8,645.3,2417.8z
	 M645.3,2379.8c-9.4,0-17,7.6-17,17c0,9.4,7.6,17,17,17s17-7.6,17-17C662.4,2387.5,654.7,2379.8,645.3,2379.8z"/>
<path class="st0" d="M792.3,2367.1c-11.6,0-21-9.4-21-21c0-11.6,9.4-21,21-21c11.6,0,21,9.4,21,21
	C813.3,2357.7,803.9,2367.1,792.3,2367.1z M792.3,2329.1c-9.4,0-17,7.6-17,17c0,9.4,7.6,17,17,17c9.4,0,17-7.6,17-17
	C809.4,2336.7,801.7,2329.1,792.3,2329.1z"/>
<rect x="666.2" y="2395.9" class="st0" width="126.4" height="2"/>
<rect x="791.4" y="2365.8" class="st0" width="2" height="32.1"/>
<path class="st0" d="M792.3,2428.4c11.6,0,21,9.4,21,21c0,11.6-9.4,21-21,21s-21-9.4-21-21C771.4,2437.8,780.8,2428.4,792.3,2428.4z
	 M792.3,2466.4c9.4,0,17-7.6,17-17c0-9.4-7.6-17-17-17s-17,7.6-17,17C775.3,2458.8,783,2466.4,792.3,2466.4z"/>
<rect x="791.4" y="2397.6" class="st0" width="2" height="32.1"/>
<path class="st0" d="M2642.4,1692.7c11.6,0,21,9.4,21,21s-9.4,21-21,21s-21-9.4-21-21C2621.5,1702.1,2630.9,1692.7,2642.4,1692.7z
	 M2642.4,1730.7c9.4,0,17-7.6,17-17s-7.6-17-17-17s-17,7.6-17,17C2625.4,1723,2633,1730.7,2642.4,1730.7z"/>
<path class="st0" d="M2028,1743.5c11.6,0,21,9.4,21,21s-9.4,21-21,21c-11.6,0-21-9.4-21-21S2016.4,1743.5,2028,1743.5z M2028,1781.5
	c9.4,0,17-7.6,17-17s-7.6-17-17-17c-9.4,0-17,7.6-17,17C2011,1773.8,2018.6,1781.5,2028,1781.5z"/>
<rect x="2028.8" y="1712.7" class="st0" width="593.3" height="2"/>
<rect x="2026.9" y="1712.7" class="st0" width="2" height="32.1"/>
<path class="st0" d="M1794.7,2436.7c0,11.6-9.4,21-21,21c-11.6,0-21-9.4-21-21c0-11.6,9.4-21,21-21
	C1785.3,2415.7,1794.7,2425.1,1794.7,2436.7z M1756.7,2436.7c0,9.4,7.6,17,17,17c9.4,0,17-7.6,17-17c0-9.4-7.6-17-17-17
	C1764.4,2419.7,1756.7,2427.3,1756.7,2436.7z"/>
<path class="st0" d="M1744,1822.3c0,11.6-9.4,21-21,21c-11.6,0-21-9.4-21-21s9.4-21,21-21C1734.5,1801.3,1744,1810.7,1744,1822.3z
	 M1706,1822.3c0,9.4,7.6,17,17,17c9.4,0,17-7.6,17-17s-7.6-17-17-17C1713.6,1805.2,1706,1812.9,1706,1822.3z"/>
<rect x="1772.8" y="1823.1" class="st0" width="2" height="593.3"/>
<rect x="1742.6" y="1821.2" class="st0" width="32.1" height="2"/>
<path class="st0" d="M2526.8,1767.2c0-11.6,9.4-21,21-21s21,9.4,21,21s-9.4,21-21,21S2526.8,1778.8,2526.8,1767.2z M2564.8,1767.2
	c0-9.4-7.6-17-17-17s-17,7.6-17,17s7.6,17,17,17C2557.1,1784.2,2564.8,1776.6,2564.8,1767.2z"/>
<path class="st0" d="M2577.5,2056.4c0-11.6,9.4-21,21-21s21,9.4,21,21c0,11.6-9.4,21-21,21
	C2586.9,2077.3,2577.5,2067.9,2577.5,2056.4z M2615.5,2056.4c0-9.4-7.6-17-17-17s-17,7.6-17,17c0,9.4,7.6,17,17,17
	S2615.5,2065.8,2615.5,2056.4z"/>
<rect x="2546.8" y="1788.1" class="st0" width="2" height="267.4"/>
<rect x="2546.8" y="2055.5" class="st0" width="32.1" height="2"/>
<path class="st0" d="M1654.2,1606.3c0-11.6,9.4-21,21-21c11.6,0,21,9.4,21,21s-9.4,21-21,21
	C1663.6,1627.3,1654.2,1617.9,1654.2,1606.3z M1692.2,1606.3c0-9.4-7.6-17-17-17c-9.4,0-17,7.6-17,17s7.6,17,17,17
	C1684.6,1623.3,1692.2,1615.7,1692.2,1606.3z"/>
<path class="st0" d="M1705,1895.5c0-11.6,9.4-21,21-21c11.6,0,21,9.4,21,21s-9.4,21-21,21C1714.4,1916.4,1705,1907,1705,1895.5z
	 M1743,1895.5c0-9.4-7.6-17-17-17c-9.4,0-17,7.6-17,17s7.6,17,17,17C1735.3,1912.5,1743,1904.9,1743,1895.5z"/>
<rect x="1674.2" y="1627.2" class="st0" width="2" height="267.4"/>
<rect x="1674.2" y="1894.6" class="st0" width="32.1" height="2"/>
<path class="st0" d="M1229.5,2406.6c11.6,0,21,9.4,21,21c0,11.6-9.4,21-21,21s-21-9.4-21-21
	C1208.5,2416,1217.9,2406.6,1229.5,2406.6z M1229.5,2444.6c9.4,0,17-7.6,17-17c0-9.4-7.6-17-17-17s-17,7.6-17,17
	C1212.5,2437,1220.1,2444.6,1229.5,2444.6z"/>
<path class="st0" d="M940.3,2457.4c11.6,0,21,9.4,21,21c0,11.6-9.4,21-21,21s-21-9.4-21-21C919.4,2466.8,928.8,2457.4,940.3,2457.4z
	 M940.3,2495.4c9.4,0,17-7.6,17-17c0-9.4-7.6-17-17-17s-17,7.6-17,17C923.3,2487.7,930.9,2495.4,940.3,2495.4z"/>
<rect x="941.2" y="2426.6" class="st0" width="267.4" height="2"/>
<rect x="939.3" y="2426.6" class="st0" width="2" height="32.1"/>
<path class="st0" d="M1229.5,2289.5c11.6,0,21,9.4,21,21c0,11.6-9.4,21-21,21s-21-9.4-21-21
	C1208.5,2298.9,1217.9,2289.5,1229.5,2289.5z M1229.5,2327.5c9.4,0,17-7.6,17-17c0-9.4-7.6-17-17-17s-17,7.6-17,17
	C1212.5,2319.8,1220.1,2327.5,1229.5,2327.5z"/>
<path class="st0" d="M940.3,2340.3c11.6,0,21,9.4,21,21c0,11.6-9.4,21-21,21s-21-9.4-21-21C919.4,2349.7,928.8,2340.3,940.3,2340.3z
	 M940.3,2378.3c9.4,0,17-7.6,17-17c0-9.4-7.6-17-17-17s-17,7.6-17,17C923.3,2370.6,930.9,2378.3,940.3,2378.3z"/>
<rect x="941.2" y="2309.5" class="st0" width="267.4" height="2"/>
<rect x="939.3" y="2309.5" class="st0" width="2" height="32.1"/>
<path class="st0" d="M1229.5,2172.4c11.6,0,21,9.4,21,21c0,11.6-9.4,21-21,21s-21-9.4-21-21
	C1208.5,2181.8,1217.9,2172.4,1229.5,2172.4z M1229.5,2210.4c9.4,0,17-7.6,17-17c0-9.4-7.6-17-17-17s-17,7.6-17,17
	C1212.5,2202.7,1220.1,2210.4,1229.5,2210.4z"/>
<path class="st0" d="M940.3,2223.1c11.6,0,21,9.4,21,21c0,11.6-9.4,21-21,21s-21-9.4-21-21C919.4,2232.5,928.8,2223.1,940.3,2223.1z
	 M940.3,2261.1c9.4,0,17-7.6,17-17c0-9.4-7.6-17-17-17s-17,7.6-17,17C923.3,2253.5,930.9,2261.1,940.3,2261.1z"/>
<rect x="941.2" y="2192.3" class="st0" width="267.4" height="2"/>
<rect x="939.3" y="2192.3" class="st0" width="2" height="32.1"/>
<path class="st0" d="M866.4,2569.5c0,11.6-9.4,21-21,21s-21-9.4-21-21s9.4-21,21-21C857,2548.6,866.4,2558,866.4,2569.5z
	 M828.4,2569.5c0,9.4,7.6,17,17,17s17-7.6,17-17s-7.6-17-17-17C836.1,2552.5,828.4,2560.1,828.4,2569.5z"/>
<path class="st0" d="M815.6,2280.4c0,11.6-9.4,21-21,21s-21-9.4-21-21c0-11.6,9.4-21,21-21C806.2,2259.4,815.6,2268.8,815.6,2280.4z
	 M777.6,2280.4c0,9.4,7.6,17,17,17s17-7.6,17-17c0-9.4-7.6-17-17-17C785.3,2263.3,777.6,2271,777.6,2280.4z"/>
<rect x="844.5" y="2281.3" class="st0" width="2" height="267.4"/>
<rect x="814.3" y="2279.3" class="st0" width="32.1" height="2"/>
<path class="st0" d="M2368.5,1732c11.6,0,21,9.4,21,21s-9.4,21-21,21s-21-9.4-21-21C2347.6,1741.4,2357,1732,2368.5,1732z
	 M2368.5,1770c9.4,0,17-7.6,17-17s-7.6-17-17-17s-17,7.6-17,17S2359.1,1770,2368.5,1770z"/>
<path class="st0" d="M2079.4,1782.8c11.6,0,21,9.4,21,21s-9.4,21-21,21c-11.6,0-21-9.4-21-21S2067.8,1782.8,2079.4,1782.8z
	 M2079.4,1820.8c9.4,0,17-7.6,17-17s-7.6-17-17-17c-9.4,0-17,7.6-17,17C2062.3,1813.2,2070,1820.8,2079.4,1820.8z"/>
<rect x="2080.3" y="1752" class="st0" width="267.4" height="2"/>
<rect x="2078.3" y="1752" class="st0" width="2" height="32.1"/>
<path class="st0" d="M3073.3,1808.6H2010.8c-25,0-45.3-17.5-45.3-39V1298c0-21.5,20.3-39,45.3-39h1062.5c25,0,45.3,17.5,45.3,39
	v471.5C3118.7,1791.1,3098.3,1808.6,3073.3,1808.6z M2010.8,1266.1c-20.5,0-37.1,14.3-37.1,31.9v471.5c0,17.6,16.6,31.9,37.1,31.9
	h1062.5c20.5,0,37.1-14.3,37.1-31.9V1298c0-17.6-16.6-31.9-37.1-31.9H2010.8z"/>
<path class="st0" d="M2615.3,939.2h-502.6c-25,0-45.3-17.5-45.3-39V467.8c0-21.5,20.3-39,45.3-39h502.6c25,0,45.3,17.5,45.3,39
	v432.4C2660.6,921.7,2640.3,939.2,2615.3,939.2z M2112.7,435.9c-20.5,0-37.1,14.3-37.1,31.9v432.4c0,17.6,16.6,31.9,37.1,31.9h502.6
	c20.5,0,37.1-14.3,37.1-31.9V467.8c0-17.6-16.6-31.9-37.1-31.9H2112.7z"/>
<path class="st0" d="M631.6,867.9H129c-25,0-45.3-17.5-45.3-39V396.5c0-21.5,20.3-39,45.3-39h502.6c25,0,45.3,17.5,45.3,39v432.4
	C676.9,850.4,656.6,867.9,631.6,867.9z M129,364.6c-20.5,0-37.1,14.3-37.1,31.9v432.4c0,17.6,16.6,31.9,37.1,31.9h502.6
	c20.5,0,37.1-14.3,37.1-31.9V396.5c0-17.6-16.6-31.9-37.1-31.9H129z"/>
<path class="st0" d="M844.4,2544.6H341.9c-25,0-45.3-17.5-45.3-39v-432.5c0-21.5,20.3-39,45.3-39h502.6c25,0,45.3,17.5,45.3,39
	v432.4C889.8,2527.1,869.4,2544.6,844.4,2544.6L844.4,2544.6z M341.9,2041.2c-20.5,0-37.1,14.3-37.1,31.9v432.4
	c0,17.6,16.6,31.9,37.1,31.9h502.6c20.5,0,37.1-14.3,37.1-31.9v-432.4c0-17.6-16.6-31.9-37.1-31.9L341.9,2041.2L341.9,2041.2z"/>
<ellipse class="st0" cx="2072.2" cy="755.7" rx="22.7" ry="19.5"/>
<path class="st0" d="M2081.1,807.7c0,4.2-4,7.7-8.9,7.7s-8.9-3.4-8.9-7.7c0-4.2,4-7.7,8.9-7.7S2081.1,803.4,2081.1,807.7z"/>
<path class="st0" d="M1261.2,2464.8l-8.8-0.5c0.6-7.4,0.4-357.9,0-683.4c0-17.6-18-31.9-40-31.9H0v-7.1h1212.3
	c27,0,48.8,17.5,48.8,39C1261.5,1939,1262,2455.6,1261.2,2464.8L1261.2,2464.8z"/>
<path class="st0" d="M3433.3,2614.7l-487.6-610.1c-8.6-10.8-13.3-25-13.3-40.1V985.8c0-31.3,20.3-56.7,45.3-56.7h788.6v10.3h-788.6
	c-20.5,0-37.1,20.8-37.1,46.4v978.7c0,12.4,3.9,24,10.9,32.9l487.6,610.1L3433.3,2614.7z"/>
<path class="st0" d="M596.2,1380.1H0v-9.6h596.2c11.8,0,22.9-4.5,31.2-12.6L2013.8,0l6.9,6.8L634.3,1364.6
	C624.2,1374.7,610.6,1380.1,596.2,1380.1L596.2,1380.1z"/>
<path class="st0" d="M2898.1,2614.7L1656,1563.8c-7.9-6.6-18.3-10.3-29.4-10.3H0v-7.8h1626.7c13.6,0,26.4,4.5,36,12.6l1242.1,1050.9
	L2898.1,2614.7z"/>
<path class="st0" d="M1257.5,755.7c0,10.8-10.2,19.5-22.7,19.5s-22.7-8.7-22.7-19.5s10.2-19.5,22.7-19.5
	C1247.4,736.1,1257.5,744.9,1257.5,755.7z"/>
<ellipse class="st0" cx="1314.4" cy="692.4" rx="22.7" ry="19.5"/>
<path class="st0" d="M2257.7,1262.6c0,10.8-10.2,19.5-22.7,19.5s-22.7-8.7-22.7-19.5s10.2-19.5,22.7-19.5
	C2247.6,1243.1,2257.7,1251.8,2257.7,1262.6z"/>
<ellipse class="st0" cx="2932.8" cy="1262.6" rx="46.6" ry="40.1"/>
<ellipse class="st0" cx="868.7" cy="1074.1" rx="22.7" ry="19.5"/>
<ellipse class="st0" cx="1314.4" cy="1074.1" rx="48.5" ry="41.7"/>
<path class="st0" d="M721.3,616.6c0,23-21.7,41.7-48.5,41.7s-48.5-18.7-48.5-41.7s21.7-41.7,48.5-41.7S721.3,593.6,721.3,616.6z"/>
<ellipse class="st0" cx="672.8" cy="723.6" rx="30" ry="25.8"/>
<ellipse class="st0" cx="593.1" cy="2035.5" rx="48.5" ry="41.7"/>
<ellipse class="st0" cx="868.7" cy="1745.4" rx="22.7" ry="19.5"/>
<path class="st0" d="M2257.7,1805c0,10.8-10.2,19.5-22.7,19.5s-22.7-8.7-22.7-19.5s10.2-19.5,22.7-19.5
	C2247.6,1785.5,2257.7,1794.3,2257.7,1805z"/>
<path class="st0" d="M2330.1,1805c0,10.8-10.2,19.5-22.7,19.5s-22.7-8.7-22.7-19.5s10.2-19.5,22.7-19.5S2330.1,1794.3,2330.1,1805z"
	/>
<path class="st0" d="M2402.4,1805c0,10.8-10.2,19.5-22.7,19.5s-22.7-8.7-22.7-19.5s10.2-19.5,22.7-19.5S2402.4,1794.3,2402.4,1805z"
	/>
<ellipse class="st0" cx="868.7" cy="1549.3" rx="43.3" ry="37.2"/>
<g transform="translate(275.3,517.1)" class="st1">
	<path class="st0" d="M2307.8,371.5h-200.9c-2.2,0-4-1.8-4-4v-20c0-2.2,1.8-4,4-4h200.9c2.2,0,4,1.8,4,4v20
		C2311.9,369.7,2310,371.5,2307.8,371.5z"/>
	<path class="st0" d="M2295.5,319.6h-176.3c-9,0-16.3-6.3-16.3-14s7.3-14,16.3-14h176.3c9,0,16.3,6.3,16.3,14
		C2311.9,313.3,2304.5,319.6,2295.5,319.6z"/>
	<path class="st0" d="M2295.5,267.6h-176.3c-9,0-16.3-6.3-16.3-14s7.3-14,16.3-14h176.3c9,0,16.3,6.3,16.3,14
		C2311.9,261.3,2304.5,267.6,2295.5,267.6z"/>
	<path class="st0" d="M615.6,192.7V75.3c0-6,5.7-10.9,12.6-10.9s12.6,4.9,12.6,10.9v117.4c0,6-5.7,10.9-12.6,10.9
		C621.2,203.6,615.6,198.7,615.6,192.7z"/>
	<path class="st0" d="M662.3,192.7V75.3c0-6,5.7-10.9,12.6-10.9s12.6,4.9,12.6,10.9v117.4c0,6-5.7,10.9-12.6,10.9
		C667.9,203.6,662.3,198.7,662.3,192.7z"/>
	<path class="st0" d="M709,192.7V75.3c0-6,5.7-10.9,12.6-10.9s12.6,4.9,12.6,10.9v117.4c0,6-5.7,10.9-12.6,10.9S709,198.7,709,192.7
		z"/>
	<path class="st0" d="M939,903.3H717.1c-11.3,0-20.5-7.9-20.5-17.7c0-9.7,9.2-17.7,20.5-17.7H939c11.3,0,20.5,7.9,20.5,17.7
		C959.6,895.3,950.3,903.3,939,903.3z"/>
	<path class="st0" d="M939,953.5H717.1c-11.3,0-20.5-7.9-20.5-17.7c0-9.7,9.2-17.7,20.5-17.7H939c11.3,0,20.5,7.9,20.5,17.7
		C959.6,945.6,950.3,953.5,939,953.5z"/>
	<path class="st0" d="M939,1003.7H717.1c-11.3,0-20.5-7.9-20.5-17.7c0-9.7,9.2-17.7,20.5-17.7H939c11.3,0,20.5,7.9,20.5,17.7
		C959.6,995.8,950.3,1003.7,939,1003.7z"/>
</g>
</svg>
