<svg version="1.1" id="Capa_1" xmlns="http://www.w3.org/2000/svg" xmlns:xlink="http://www.w3.org/1999/xlink" x="0px" y="0px" viewBox="0 0 101 31" xml:space="preserve"><g id="XMLID_2_"><path id="XMLID_3_" d="M98.5,3.5l0,23.98h-6l0-14.84l-9.72,11.09l-9.72-11.09l0,14.84h-5.94l0-23.98h0.31l0,0
                        c0.01,0,0.02,0,0.03,0c2.71,0,5.04,0.83,6.11,2.02v0l9.22,10.24l9.3-10.28c1.08-1.17,3.39-1.99,6.08-1.99c0,0,0.02,0,0.03,0l0,0
                        H98.5z M63.9,3.5L63.9,3.5c0,0-0.02,0-0.04,0c-3,0-5.59,0.82-6.79,2l-9.41,14.25L38.25,5.5c-1.2-1.17-3.79-1.99-6.79-1.99
                        c-0.01,0-0.02,0-0.02,0l-0.01,0h-1.9l16.02,23.98h4.22L65.86,3.5H63.9z M22.35,5.48l0,12.69c0,1.2,0,2.83-1.71,3.89
                        c-1.25,0.75-3.24,0.93-5.52,0.93c-1.82,0-3.81-0.09-5.06-0.88c-1.48-0.93-1.54-2.26-1.54-3.49l0-13.14C7.47,4.31,5.17,3.51,2.5,3.5
                        l0,15.59c0,1.94,0.4,4.29,2.62,6.06c2.67,2.12,7,2.34,10.12,2.34c3.47,0,7.51-0.36,10.07-2.08c2.67-1.77,3.02-4.02,3.02-6.32
                        l0-15.59C25.67,3.53,23.4,4.33,22.35,5.48" class="logo-uvm-svg"></path></g></svg>